%FSLAX45Y45*%
G04 Gerber Fmt 4.5, Leading zero omitted, Abs format (unit mm)*
G04 Created by KiCad (PCBNEW (6.0.6)) date 2022-08-17 22:13:00*
%MOMM*%
%LPD*%
G01*
G04 APERTURE LIST*
%TA.AperFunction,Profile*%
%ADD10C,0.200000*%
%TD*%
%ADD11C,0.200000*%
%ADD12C,0.030000*%
%ADD13C,0.035000*%
%ADD14C,0.040000*%
%ADD15C,0.060000*%
%ADD16C,0.100000*%
%ADD17C,0.220000*%
%ADD18C,0.300000*%
G04 APERTURE END LIST*
D10*
X6629375Y-4711255D02*
G75*
G03*
X6554375Y-4786250I-5J-74995D01*
G01*
X3726875Y-14691250D02*
X10401875Y-14691250D01*
X10401875Y-14691255D02*
G75*
G03*
X10801875Y-14291250I-5J400005D01*
G01*
X7499375Y-4711250D02*
X6629375Y-4711250D01*
X7574375Y-5231250D02*
X7574375Y-4786250D01*
X6474375Y-5311245D02*
G75*
G03*
X6554375Y-5231250I5J79995D01*
G01*
X7574380Y-5231250D02*
G75*
G03*
X7654375Y-5311250I80000J0D01*
G01*
X10801880Y-5711250D02*
G75*
G03*
X10401875Y-5311250I-400000J0D01*
G01*
X3326875Y-5711250D02*
X3326875Y-14291250D01*
X10801875Y-14291250D02*
X10801875Y-5711250D01*
X10401875Y-5311250D02*
X7654375Y-5311250D01*
X6554375Y-4786250D02*
X6554375Y-5231250D01*
X3326875Y-14291250D02*
G75*
G03*
X3726875Y-14691250I400000J0D01*
G01*
X6474375Y-5311250D02*
X3726875Y-5311250D01*
X7574370Y-4786250D02*
G75*
G03*
X7499375Y-4711250I-75000J0D01*
G01*
X3726875Y-5311250D02*
G75*
G03*
X3326875Y-5711250I0J-400000D01*
G01*
D11*
D12*
X3448875Y-11288250D02*
X3478875Y-11318250D01*
X3478875Y-11288250D02*
X3448875Y-11318250D01*
X3479000Y-9951000D02*
X3509000Y-9981000D01*
X3509000Y-9951000D02*
X3479000Y-9981000D01*
X3669000Y-12438000D02*
X3699000Y-12468000D01*
X3699000Y-12438000D02*
X3669000Y-12468000D01*
X3687000Y-9003000D02*
X3717000Y-9033000D01*
X3717000Y-9003000D02*
X3687000Y-9033000D01*
X3728000Y-8376000D02*
X3758000Y-8406000D01*
X3758000Y-8376000D02*
X3728000Y-8406000D01*
X3746000Y-7050000D02*
X3776000Y-7080000D01*
X3776000Y-7050000D02*
X3746000Y-7080000D01*
X3866000Y-8538000D02*
X3896000Y-8568000D01*
X3896000Y-8538000D02*
X3866000Y-8568000D01*
X3952875Y-10173250D02*
X3982875Y-10203250D01*
X3982875Y-10173250D02*
X3952875Y-10203250D01*
X3975000Y-8759000D02*
X4005000Y-8789000D01*
X4005000Y-8759000D02*
X3975000Y-8789000D01*
X4031000Y-9167000D02*
X4061000Y-9197000D01*
X4061000Y-9167000D02*
X4031000Y-9197000D01*
X4121000Y-7713000D02*
X4151000Y-7743000D01*
X4151000Y-7713000D02*
X4121000Y-7743000D01*
X4142000Y-9600000D02*
X4172000Y-9630000D01*
X4172000Y-9600000D02*
X4142000Y-9630000D01*
X4156000Y-7391000D02*
X4186000Y-7421000D01*
X4186000Y-7391000D02*
X4156000Y-7421000D01*
X4177000Y-5578000D02*
X4207000Y-5608000D01*
X4207000Y-5578000D02*
X4177000Y-5608000D01*
X4296875Y-14230250D02*
X4326875Y-14260250D01*
X4326875Y-14230250D02*
X4296875Y-14260250D01*
X4473000Y-8562000D02*
X4503000Y-8592000D01*
X4503000Y-8562000D02*
X4473000Y-8592000D01*
X4501000Y-7086000D02*
X4531000Y-7116000D01*
X4531000Y-7086000D02*
X4501000Y-7116000D01*
X4562875Y-8825250D02*
X4592875Y-8855250D01*
X4592875Y-8825250D02*
X4562875Y-8855250D01*
X4573000Y-8562000D02*
X4603000Y-8592000D01*
X4603000Y-8562000D02*
X4573000Y-8592000D01*
X4602000Y-10272000D02*
X4632000Y-10302000D01*
X4632000Y-10272000D02*
X4602000Y-10302000D01*
X4629000Y-9677000D02*
X4659000Y-9707000D01*
X4659000Y-9677000D02*
X4629000Y-9707000D01*
X4632000Y-9051000D02*
X4662000Y-9081000D01*
X4662000Y-9051000D02*
X4632000Y-9081000D01*
X4636875Y-8793250D02*
X4666875Y-8823250D01*
X4666875Y-8793250D02*
X4636875Y-8823250D01*
X4678000Y-7260250D02*
X4708000Y-7290250D01*
X4708000Y-7260250D02*
X4678000Y-7290250D01*
X4694000Y-10506000D02*
X4724000Y-10536000D01*
X4724000Y-10506000D02*
X4694000Y-10536000D01*
X4800000Y-8531000D02*
X4830000Y-8561000D01*
X4830000Y-8531000D02*
X4800000Y-8561000D01*
X4807000Y-9217000D02*
X4837000Y-9247000D01*
X4837000Y-9217000D02*
X4807000Y-9247000D01*
X4808000Y-10166000D02*
X4838000Y-10196000D01*
X4838000Y-10166000D02*
X4808000Y-10196000D01*
X4958375Y-8676781D02*
X4988375Y-8706781D01*
X4988375Y-8676781D02*
X4958375Y-8706781D01*
X4984000Y-9469000D02*
X5014000Y-9499000D01*
X5014000Y-9469000D02*
X4984000Y-9499000D01*
X5040000Y-11922000D02*
X5070000Y-11952000D01*
X5070000Y-11922000D02*
X5040000Y-11952000D01*
X5106000Y-10166000D02*
X5136000Y-10196000D01*
X5136000Y-10166000D02*
X5106000Y-10196000D01*
X5108000Y-7977000D02*
X5138000Y-8007000D01*
X5138000Y-7977000D02*
X5108000Y-8007000D01*
X5165000Y-9755000D02*
X5195000Y-9785000D01*
X5195000Y-9755000D02*
X5165000Y-9785000D01*
X5174000Y-8025000D02*
X5204000Y-8055000D01*
X5204000Y-8025000D02*
X5174000Y-8055000D01*
X5189000Y-8426000D02*
X5219000Y-8456000D01*
X5219000Y-8426000D02*
X5189000Y-8456000D01*
X5200500Y-5852500D02*
X5230500Y-5882500D01*
X5230500Y-5852500D02*
X5200500Y-5882500D01*
X5265000Y-10528000D02*
X5295000Y-10558000D01*
X5295000Y-10528000D02*
X5265000Y-10558000D01*
X5293000Y-9543000D02*
X5323000Y-9573000D01*
X5323000Y-9543000D02*
X5293000Y-9573000D01*
X5345000Y-6054000D02*
X5375000Y-6084000D01*
X5375000Y-6054000D02*
X5345000Y-6084000D01*
X5366375Y-8703781D02*
X5396375Y-8733781D01*
X5396375Y-8703781D02*
X5366375Y-8733781D01*
X5381000Y-10193000D02*
X5411000Y-10223000D01*
X5411000Y-10193000D02*
X5381000Y-10223000D01*
X5419875Y-13767250D02*
X5449875Y-13797250D01*
X5449875Y-13767250D02*
X5419875Y-13797250D01*
X5437000Y-8250000D02*
X5467000Y-8280000D01*
X5467000Y-8250000D02*
X5437000Y-8280000D01*
X5480000Y-12489000D02*
X5510000Y-12519000D01*
X5510000Y-12489000D02*
X5480000Y-12519000D01*
X5491000Y-9209000D02*
X5521000Y-9239000D01*
X5521000Y-9209000D02*
X5491000Y-9239000D01*
X5538000Y-8250000D02*
X5568000Y-8280000D01*
X5568000Y-8250000D02*
X5538000Y-8280000D01*
X5548000Y-9549000D02*
X5578000Y-9579000D01*
X5578000Y-9549000D02*
X5548000Y-9579000D01*
X5552000Y-10272000D02*
X5582000Y-10302000D01*
X5582000Y-10272000D02*
X5552000Y-10302000D01*
X5567000Y-10421000D02*
X5597000Y-10451000D01*
X5597000Y-10421000D02*
X5567000Y-10451000D01*
X5621000Y-10156000D02*
X5651000Y-10186000D01*
X5651000Y-10156000D02*
X5621000Y-10186000D01*
X5627000Y-7403000D02*
X5657000Y-7433000D01*
X5657000Y-7403000D02*
X5627000Y-7433000D01*
X5657000Y-9358000D02*
X5687000Y-9388000D01*
X5687000Y-9358000D02*
X5657000Y-9388000D01*
X5666875Y-8834000D02*
X5696875Y-8864000D01*
X5696875Y-8834000D02*
X5666875Y-8864000D01*
X5700875Y-8911000D02*
X5730875Y-8941000D01*
X5730875Y-8911000D02*
X5700875Y-8941000D01*
X5780000Y-8555000D02*
X5810000Y-8585000D01*
X5810000Y-8555000D02*
X5780000Y-8585000D01*
X5780000Y-8657000D02*
X5810000Y-8687000D01*
X5810000Y-8657000D02*
X5780000Y-8687000D01*
X5832000Y-8065000D02*
X5862000Y-8095000D01*
X5862000Y-8065000D02*
X5832000Y-8095000D01*
X5853000Y-9510000D02*
X5883000Y-9540000D01*
X5883000Y-9510000D02*
X5853000Y-9540000D01*
X5871000Y-7074000D02*
X5901000Y-7104000D01*
X5901000Y-7074000D02*
X5871000Y-7104000D01*
X5872000Y-9332000D02*
X5902000Y-9362000D01*
X5902000Y-9332000D02*
X5872000Y-9362000D01*
X5901000Y-9445000D02*
X5931000Y-9475000D01*
X5931000Y-9445000D02*
X5901000Y-9475000D01*
X5933000Y-8933000D02*
X5963000Y-8963000D01*
X5963000Y-8933000D02*
X5933000Y-8963000D01*
X5960875Y-10645250D02*
X5990875Y-10675250D01*
X5990875Y-10645250D02*
X5960875Y-10675250D01*
X6079000Y-7393000D02*
X6109000Y-7423000D01*
X6109000Y-7393000D02*
X6079000Y-7423000D01*
X6087875Y-8934250D02*
X6117875Y-8964250D01*
X6117875Y-8934250D02*
X6087875Y-8964250D01*
X6187000Y-9332000D02*
X6217000Y-9362000D01*
X6217000Y-9332000D02*
X6187000Y-9362000D01*
X6266875Y-8838250D02*
X6296875Y-8868250D01*
X6296875Y-8838250D02*
X6266875Y-8868250D01*
X6288000Y-5583000D02*
X6318000Y-5613000D01*
X6318000Y-5583000D02*
X6288000Y-5613000D01*
X6308250Y-9003000D02*
X6338250Y-9033000D01*
X6338250Y-9003000D02*
X6308250Y-9033000D01*
X6467250Y-8742000D02*
X6497250Y-8772000D01*
X6497250Y-8742000D02*
X6467250Y-8772000D01*
X6471250Y-8838000D02*
X6501250Y-8868000D01*
X6501250Y-8838000D02*
X6471250Y-8868000D01*
X6490000Y-8949000D02*
X6520000Y-8979000D01*
X6520000Y-8949000D02*
X6490000Y-8979000D01*
X6509875Y-12551250D02*
X6539875Y-12581250D01*
X6539875Y-12551250D02*
X6509875Y-12581250D01*
X6526000Y-8294000D02*
X6556000Y-8324000D01*
X6556000Y-8294000D02*
X6526000Y-8324000D01*
X6535000Y-8461000D02*
X6565000Y-8491000D01*
X6565000Y-8461000D02*
X6535000Y-8491000D01*
X6544000Y-8661000D02*
X6574000Y-8691000D01*
X6574000Y-8661000D02*
X6544000Y-8691000D01*
X6565000Y-5493875D02*
X6595000Y-5523875D01*
X6595000Y-5493875D02*
X6565000Y-5523875D01*
X6622000Y-11652000D02*
X6652000Y-11682000D01*
X6652000Y-11652000D02*
X6622000Y-11682000D01*
X6661000Y-5852000D02*
X6691000Y-5882000D01*
X6691000Y-5852000D02*
X6661000Y-5882000D01*
X6678750Y-12177250D02*
X6708750Y-12207250D01*
X6708750Y-12177250D02*
X6678750Y-12207250D01*
X6714750Y-14082250D02*
X6744750Y-14112250D01*
X6744750Y-14082250D02*
X6714750Y-14112250D01*
X6733000Y-5788000D02*
X6763000Y-5818000D01*
X6763000Y-5788000D02*
X6733000Y-5818000D01*
X6754000Y-7260000D02*
X6784000Y-7290000D01*
X6784000Y-7260000D02*
X6754000Y-7290000D01*
X6757000Y-5950000D02*
X6787000Y-5980000D01*
X6787000Y-5950000D02*
X6757000Y-5980000D01*
X6805000Y-7772000D02*
X6835000Y-7802000D01*
X6835000Y-7772000D02*
X6805000Y-7802000D01*
X6818000Y-6621000D02*
X6848000Y-6651000D01*
X6848000Y-6621000D02*
X6818000Y-6651000D01*
X6820000Y-9111000D02*
X6850000Y-9141000D01*
X6850000Y-9111000D02*
X6820000Y-9141000D01*
X6868000Y-7124000D02*
X6898000Y-7154000D01*
X6898000Y-7124000D02*
X6868000Y-7154000D01*
X6874000Y-9334000D02*
X6904000Y-9364000D01*
X6904000Y-9334000D02*
X6874000Y-9364000D01*
X6893875Y-14371250D02*
X6923875Y-14401250D01*
X6923875Y-14371250D02*
X6893875Y-14401250D01*
X6899000Y-8312000D02*
X6929000Y-8342000D01*
X6929000Y-8312000D02*
X6899000Y-8342000D01*
X6916000Y-5432875D02*
X6946000Y-5462875D01*
X6946000Y-5432875D02*
X6916000Y-5462875D01*
X6918000Y-7285000D02*
X6948000Y-7315000D01*
X6948000Y-7285000D02*
X6918000Y-7315000D01*
X6921000Y-8568000D02*
X6951000Y-8598000D01*
X6951000Y-8568000D02*
X6921000Y-8598000D01*
X6925000Y-5801000D02*
X6955000Y-5831000D01*
X6955000Y-5801000D02*
X6925000Y-5831000D01*
X6928000Y-6253000D02*
X6958000Y-6283000D01*
X6958000Y-6253000D02*
X6928000Y-6283000D01*
X6958000Y-5955000D02*
X6988000Y-5985000D01*
X6988000Y-5955000D02*
X6958000Y-5985000D01*
X6967000Y-6805000D02*
X6997000Y-6835000D01*
X6997000Y-6805000D02*
X6967000Y-6835000D01*
X7007000Y-7465000D02*
X7037000Y-7495000D01*
X7037000Y-7465000D02*
X7007000Y-7495000D01*
X7058000Y-9120000D02*
X7088000Y-9150000D01*
X7088000Y-9120000D02*
X7058000Y-9150000D01*
X7066875Y-10950250D02*
X7096875Y-10980250D01*
X7096875Y-10950250D02*
X7066875Y-10980250D01*
X7076000Y-8455000D02*
X7106000Y-8485000D01*
X7106000Y-8455000D02*
X7076000Y-8485000D01*
X7113000Y-7136000D02*
X7143000Y-7166000D01*
X7143000Y-7136000D02*
X7113000Y-7166000D01*
X7158000Y-5804000D02*
X7188000Y-5834000D01*
X7188000Y-5804000D02*
X7158000Y-5834000D01*
X7209000Y-10080000D02*
X7239000Y-10110000D01*
X7239000Y-10080000D02*
X7209000Y-10110000D01*
X7217000Y-7652000D02*
X7247000Y-7682000D01*
X7247000Y-7652000D02*
X7217000Y-7682000D01*
X7236000Y-5951000D02*
X7266000Y-5981000D01*
X7266000Y-5951000D02*
X7236000Y-5981000D01*
X7255000Y-11945000D02*
X7285000Y-11975000D01*
X7285000Y-11945000D02*
X7255000Y-11975000D01*
X7271000Y-5852000D02*
X7301000Y-5882000D01*
X7301000Y-5852000D02*
X7271000Y-5882000D01*
X7275000Y-8343000D02*
X7305000Y-8373000D01*
X7305000Y-8343000D02*
X7275000Y-8373000D01*
X7290000Y-7137000D02*
X7320000Y-7167000D01*
X7320000Y-7137000D02*
X7290000Y-7167000D01*
X7291000Y-6861000D02*
X7321000Y-6891000D01*
X7321000Y-6861000D02*
X7291000Y-6891000D01*
X7291000Y-7319000D02*
X7321000Y-7349000D01*
X7321000Y-7319000D02*
X7291000Y-7349000D01*
X7295000Y-6504000D02*
X7325000Y-6534000D01*
X7325000Y-6504000D02*
X7295000Y-6534000D01*
X7359875Y-7253250D02*
X7389875Y-7283250D01*
X7389875Y-7253250D02*
X7359875Y-7283250D01*
X7488000Y-7509000D02*
X7518000Y-7539000D01*
X7518000Y-7509000D02*
X7488000Y-7539000D01*
X7520000Y-8626000D02*
X7550000Y-8656000D01*
X7550000Y-8626000D02*
X7520000Y-8656000D01*
X7549000Y-9322000D02*
X7579000Y-9352000D01*
X7579000Y-9322000D02*
X7549000Y-9352000D01*
X7749000Y-8185000D02*
X7779000Y-8215000D01*
X7779000Y-8185000D02*
X7749000Y-8215000D01*
X7757875Y-10340250D02*
X7787875Y-10370250D01*
X7787875Y-10340250D02*
X7757875Y-10370250D01*
X7758000Y-9174000D02*
X7788000Y-9204000D01*
X7788000Y-9174000D02*
X7758000Y-9204000D01*
X7792000Y-5583000D02*
X7822000Y-5613000D01*
X7822000Y-5583000D02*
X7792000Y-5613000D01*
X7882000Y-7642000D02*
X7912000Y-7672000D01*
X7912000Y-7642000D02*
X7882000Y-7672000D01*
X8090000Y-6534000D02*
X8120000Y-6564000D01*
X8120000Y-6534000D02*
X8090000Y-6564000D01*
X8447875Y-14379250D02*
X8477875Y-14409250D01*
X8477875Y-14379250D02*
X8447875Y-14409250D01*
X8597000Y-12649000D02*
X8627000Y-12679000D01*
X8627000Y-12649000D02*
X8597000Y-12679000D01*
X8701000Y-6898000D02*
X8731000Y-6928000D01*
X8731000Y-6898000D02*
X8701000Y-6928000D01*
X8713000Y-7892000D02*
X8743000Y-7922000D01*
X8743000Y-7892000D02*
X8713000Y-7922000D01*
X8787875Y-10425250D02*
X8817875Y-10455250D01*
X8817875Y-10425250D02*
X8787875Y-10455250D01*
X9026875Y-6249250D02*
X9056875Y-6279250D01*
X9056875Y-6249250D02*
X9026875Y-6279250D01*
X9253000Y-10968000D02*
X9283000Y-10998000D01*
X9283000Y-10968000D02*
X9253000Y-10998000D01*
X9346875Y-5427250D02*
X9376875Y-5457250D01*
X9376875Y-5427250D02*
X9346875Y-5457250D01*
X9352875Y-9058250D02*
X9382875Y-9088250D01*
X9382875Y-9058250D02*
X9352875Y-9088250D01*
X9682000Y-7462000D02*
X9712000Y-7492000D01*
X9712000Y-7462000D02*
X9682000Y-7492000D01*
X9867875Y-11021250D02*
X9897875Y-11051250D01*
X9897875Y-11021250D02*
X9867875Y-11051250D01*
X10045000Y-7016000D02*
X10075000Y-7046000D01*
X10075000Y-7016000D02*
X10045000Y-7046000D01*
X10187000Y-11891000D02*
X10217000Y-11921000D01*
X10217000Y-11891000D02*
X10187000Y-11921000D01*
X10278000Y-13844000D02*
X10308000Y-13874000D01*
X10308000Y-13844000D02*
X10278000Y-13874000D01*
X10585000Y-8283000D02*
X10615000Y-8313000D01*
X10615000Y-8283000D02*
X10585000Y-8313000D01*
X10586000Y-12050000D02*
X10616000Y-12080000D01*
X10616000Y-12050000D02*
X10586000Y-12080000D01*
D13*
X5049875Y-8761500D02*
G75*
G03*
X5049875Y-8761500I-17500J0D01*
G01*
X5049875Y-8889000D02*
G75*
G03*
X5049875Y-8889000I-17500J0D01*
G01*
X5049875Y-9016500D02*
G75*
G03*
X5049875Y-9016500I-17500J0D01*
G01*
X5177375Y-8761500D02*
G75*
G03*
X5177375Y-8761500I-17500J0D01*
G01*
X5177375Y-8889000D02*
G75*
G03*
X5177375Y-8889000I-17500J0D01*
G01*
X5177375Y-9016500D02*
G75*
G03*
X5177375Y-9016500I-17500J0D01*
G01*
X5304875Y-8761500D02*
G75*
G03*
X5304875Y-8761500I-17500J0D01*
G01*
X5304875Y-8889000D02*
G75*
G03*
X5304875Y-8889000I-17500J0D01*
G01*
X5304875Y-9016500D02*
G75*
G03*
X5304875Y-9016500I-17500J0D01*
G01*
D14*
X3999000Y-8954000D02*
X3999000Y-8994000D01*
X3979000Y-8974000D02*
X4019000Y-8974000D01*
X4194000Y-8688000D02*
X4194000Y-8728000D01*
X4174000Y-8708000D02*
X4214000Y-8708000D01*
X5913000Y-8652000D02*
X5913000Y-8692000D01*
X5893000Y-8672000D02*
X5933000Y-8672000D01*
X6299000Y-8653000D02*
X6299000Y-8693000D01*
X6279000Y-8673000D02*
X6319000Y-8673000D01*
X6995000Y-7803000D02*
X6995000Y-7843000D01*
X6975000Y-7823000D02*
X7015000Y-7823000D01*
X7128000Y-7299000D02*
X7128000Y-7339000D01*
X7108000Y-7319000D02*
X7148000Y-7319000D01*
D15*
X6653588Y-4837463D02*
X6653588Y-4795037D01*
X6611162Y-4795037D01*
X6611162Y-4837463D01*
X6653588Y-4837463D01*
D11*
X6602375Y-4786250D02*
X6602375Y-4846250D01*
X6662375Y-4786250D02*
X6662375Y-4846250D01*
X6602375Y-4846250D02*
G75*
G03*
X6662375Y-4846250I30000J0D01*
G01*
X6662375Y-4786250D02*
G75*
G03*
X6602375Y-4786250I-30000J0D01*
G01*
D15*
X6653588Y-5255463D02*
X6653588Y-5213037D01*
X6611162Y-5213037D01*
X6611162Y-5255463D01*
X6653588Y-5255463D01*
D11*
X6602375Y-5179250D02*
X6602375Y-5289250D01*
X6662375Y-5179250D02*
X6662375Y-5289250D01*
X6602375Y-5289250D02*
G75*
G03*
X6662375Y-5289250I30000J0D01*
G01*
X6662375Y-5179250D02*
G75*
G03*
X6602375Y-5179250I-30000J0D01*
G01*
D15*
X7517588Y-4837463D02*
X7517588Y-4795037D01*
X7475162Y-4795037D01*
X7475162Y-4837463D01*
X7517588Y-4837463D01*
D11*
X7466375Y-4786250D02*
X7466375Y-4846250D01*
X7526375Y-4786250D02*
X7526375Y-4846250D01*
X7466375Y-4846250D02*
G75*
G03*
X7526375Y-4846250I30000J0D01*
G01*
X7526375Y-4786250D02*
G75*
G03*
X7466375Y-4786250I-30000J0D01*
G01*
D15*
X7517588Y-5255463D02*
X7517588Y-5213037D01*
X7475162Y-5213037D01*
X7475162Y-5255463D01*
X7517588Y-5255463D01*
D11*
X7466375Y-5179250D02*
X7466375Y-5289250D01*
X7526375Y-5179250D02*
X7526375Y-5289250D01*
X7466375Y-5289250D02*
G75*
G03*
X7526375Y-5289250I30000J0D01*
G01*
X7526375Y-5179250D02*
G75*
G03*
X7466375Y-5179250I-30000J0D01*
G01*
D16*
X3542062Y-8367250D02*
X3592062Y-8317250D01*
X3542062Y-8267250D01*
X3492062Y-8317250D01*
X3542062Y-8367250D01*
X3542062Y-8621250D02*
X3592062Y-8571250D01*
X3542062Y-8521250D01*
X3492062Y-8571250D01*
X3542062Y-8621250D01*
X3542062Y-8875250D02*
X3592062Y-8825250D01*
X3542062Y-8775250D01*
X3492062Y-8825250D01*
X3542062Y-8875250D01*
X3542062Y-9129250D02*
X3592062Y-9079250D01*
X3542062Y-9029250D01*
X3492062Y-9079250D01*
X3542062Y-9129250D01*
X3542062Y-9383250D02*
X3592062Y-9333250D01*
X3542062Y-9283250D01*
X3492062Y-9333250D01*
X3542062Y-9383250D01*
X7877875Y-8479750D02*
X7927875Y-8429750D01*
X7877875Y-8379750D01*
X7827875Y-8429750D01*
X7877875Y-8479750D01*
X8131875Y-8479750D02*
X8181875Y-8429750D01*
X8131875Y-8379750D01*
X8081875Y-8429750D01*
X8131875Y-8479750D01*
D17*
X5049375Y-7033750D02*
X5269375Y-7253750D01*
X5269375Y-7033750D02*
X5049375Y-7253750D01*
X5269375Y-7143750D02*
G75*
G03*
X5269375Y-7143750I-110000J0D01*
G01*
X5049375Y-12748750D02*
X5269375Y-12968750D01*
X5269375Y-12748750D02*
X5049375Y-12968750D01*
X5269375Y-12858750D02*
G75*
G03*
X5269375Y-12858750I-110000J0D01*
G01*
X8859375Y-7033750D02*
X9079375Y-7253750D01*
X9079375Y-7033750D02*
X8859375Y-7253750D01*
X9079375Y-7143750D02*
G75*
G03*
X9079375Y-7143750I-110000J0D01*
G01*
X8859375Y-12748750D02*
X9079375Y-12968750D01*
X9079375Y-12748750D02*
X8859375Y-12968750D01*
X9079375Y-12858750D02*
G75*
G03*
X9079375Y-12858750I-110000J0D01*
G01*
D18*
X3675875Y-7692250D02*
X3975875Y-7992250D01*
X3975875Y-7692250D02*
X3675875Y-7992250D01*
X3825875Y-7692250D02*
X3825875Y-7992250D01*
X3675875Y-7842250D02*
X3975875Y-7842250D01*
X3675875Y-9597250D02*
X3975875Y-9897250D01*
X3975875Y-9597250D02*
X3675875Y-9897250D01*
X3825875Y-9597250D02*
X3825875Y-9897250D01*
X3675875Y-9747250D02*
X3975875Y-9747250D01*
X3675875Y-11502250D02*
X3975875Y-11802250D01*
X3975875Y-11502250D02*
X3675875Y-11802250D01*
X3825875Y-11502250D02*
X3825875Y-11802250D01*
X3675875Y-11652250D02*
X3975875Y-11652250D01*
X3675875Y-13407250D02*
X3975875Y-13707250D01*
X3975875Y-13407250D02*
X3675875Y-13707250D01*
X3825875Y-13407250D02*
X3825875Y-13707250D01*
X3675875Y-13557250D02*
X3975875Y-13557250D01*
X3802875Y-6549250D02*
X4102875Y-6849250D01*
X4102875Y-6549250D02*
X3802875Y-6849250D01*
X3952875Y-6549250D02*
X3952875Y-6849250D01*
X3802875Y-6699250D02*
X4102875Y-6699250D01*
X4310875Y-7438250D02*
X4610875Y-7738250D01*
X4610875Y-7438250D02*
X4310875Y-7738250D01*
X4460875Y-7438250D02*
X4460875Y-7738250D01*
X4310875Y-7588250D02*
X4610875Y-7588250D01*
X4310875Y-9343250D02*
X4610875Y-9643250D01*
X4610875Y-9343250D02*
X4310875Y-9643250D01*
X4460875Y-9343250D02*
X4460875Y-9643250D01*
X4310875Y-9493250D02*
X4610875Y-9493250D01*
X4310875Y-11248250D02*
X4610875Y-11548250D01*
X4610875Y-11248250D02*
X4310875Y-11548250D01*
X4460875Y-11248250D02*
X4460875Y-11548250D01*
X4310875Y-11398250D02*
X4610875Y-11398250D01*
X4310875Y-13153250D02*
X4610875Y-13453250D01*
X4610875Y-13153250D02*
X4310875Y-13453250D01*
X4460875Y-13153250D02*
X4460875Y-13453250D01*
X4310875Y-13303250D02*
X4610875Y-13303250D01*
X4437875Y-6295250D02*
X4737875Y-6595250D01*
X4737875Y-6295250D02*
X4437875Y-6595250D01*
X4587875Y-6295250D02*
X4587875Y-6595250D01*
X4437875Y-6445250D02*
X4737875Y-6445250D01*
X4755375Y-14169250D02*
X5055375Y-14469250D01*
X5055375Y-14169250D02*
X4755375Y-14469250D01*
X4905375Y-14169250D02*
X4905375Y-14469250D01*
X4755375Y-14319250D02*
X5055375Y-14319250D01*
X5390375Y-13915250D02*
X5690375Y-14215250D01*
X5690375Y-13915250D02*
X5390375Y-14215250D01*
X5540375Y-13915250D02*
X5540375Y-14215250D01*
X5390375Y-14065250D02*
X5690375Y-14065250D01*
X5580875Y-7692250D02*
X5880875Y-7992250D01*
X5880875Y-7692250D02*
X5580875Y-7992250D01*
X5730875Y-7692250D02*
X5730875Y-7992250D01*
X5580875Y-7842250D02*
X5880875Y-7842250D01*
X5580875Y-9597250D02*
X5880875Y-9897250D01*
X5880875Y-9597250D02*
X5580875Y-9897250D01*
X5730875Y-9597250D02*
X5730875Y-9897250D01*
X5580875Y-9747250D02*
X5880875Y-9747250D01*
X5580875Y-11502250D02*
X5880875Y-11802250D01*
X5880875Y-11502250D02*
X5580875Y-11802250D01*
X5730875Y-11502250D02*
X5730875Y-11802250D01*
X5580875Y-11652250D02*
X5880875Y-11652250D01*
X5580875Y-13407250D02*
X5880875Y-13707250D01*
X5880875Y-13407250D02*
X5580875Y-13707250D01*
X5730875Y-13407250D02*
X5730875Y-13707250D01*
X5580875Y-13557250D02*
X5880875Y-13557250D01*
X5707875Y-6549250D02*
X6007875Y-6849250D01*
X6007875Y-6549250D02*
X5707875Y-6849250D01*
X5857875Y-6549250D02*
X5857875Y-6849250D01*
X5707875Y-6699250D02*
X6007875Y-6699250D01*
X6215875Y-7438250D02*
X6515875Y-7738250D01*
X6515875Y-7438250D02*
X6215875Y-7738250D01*
X6365875Y-7438250D02*
X6365875Y-7738250D01*
X6215875Y-7588250D02*
X6515875Y-7588250D01*
X6215875Y-9343250D02*
X6515875Y-9643250D01*
X6515875Y-9343250D02*
X6215875Y-9643250D01*
X6365875Y-9343250D02*
X6365875Y-9643250D01*
X6215875Y-9493250D02*
X6515875Y-9493250D01*
X6215875Y-11248250D02*
X6515875Y-11548250D01*
X6515875Y-11248250D02*
X6215875Y-11548250D01*
X6365875Y-11248250D02*
X6365875Y-11548250D01*
X6215875Y-11398250D02*
X6515875Y-11398250D01*
X6215875Y-13153250D02*
X6515875Y-13453250D01*
X6515875Y-13153250D02*
X6215875Y-13453250D01*
X6365875Y-13153250D02*
X6365875Y-13453250D01*
X6215875Y-13303250D02*
X6515875Y-13303250D01*
X6342875Y-6295250D02*
X6642875Y-6595250D01*
X6642875Y-6295250D02*
X6342875Y-6595250D01*
X6492875Y-6295250D02*
X6492875Y-6595250D01*
X6342875Y-6445250D02*
X6642875Y-6445250D01*
X7485875Y-7692250D02*
X7785875Y-7992250D01*
X7785875Y-7692250D02*
X7485875Y-7992250D01*
X7635875Y-7692250D02*
X7635875Y-7992250D01*
X7485875Y-7842250D02*
X7785875Y-7842250D01*
X7485875Y-9597250D02*
X7785875Y-9897250D01*
X7785875Y-9597250D02*
X7485875Y-9897250D01*
X7635875Y-9597250D02*
X7635875Y-9897250D01*
X7485875Y-9747250D02*
X7785875Y-9747250D01*
X7485875Y-11502250D02*
X7785875Y-11802250D01*
X7785875Y-11502250D02*
X7485875Y-11802250D01*
X7635875Y-11502250D02*
X7635875Y-11802250D01*
X7485875Y-11652250D02*
X7785875Y-11652250D01*
X7485875Y-13407250D02*
X7785875Y-13707250D01*
X7785875Y-13407250D02*
X7485875Y-13707250D01*
X7635875Y-13407250D02*
X7635875Y-13707250D01*
X7485875Y-13557250D02*
X7785875Y-13557250D01*
X7612875Y-6549250D02*
X7912875Y-6849250D01*
X7912875Y-6549250D02*
X7612875Y-6849250D01*
X7762875Y-6549250D02*
X7762875Y-6849250D01*
X7612875Y-6699250D02*
X7912875Y-6699250D01*
X8120875Y-7438250D02*
X8420875Y-7738250D01*
X8420875Y-7438250D02*
X8120875Y-7738250D01*
X8270875Y-7438250D02*
X8270875Y-7738250D01*
X8120875Y-7588250D02*
X8420875Y-7588250D01*
X8120875Y-9343250D02*
X8420875Y-9643250D01*
X8420875Y-9343250D02*
X8120875Y-9643250D01*
X8270875Y-9343250D02*
X8270875Y-9643250D01*
X8120875Y-9493250D02*
X8420875Y-9493250D01*
X8120875Y-11248250D02*
X8420875Y-11548250D01*
X8420875Y-11248250D02*
X8120875Y-11548250D01*
X8270875Y-11248250D02*
X8270875Y-11548250D01*
X8120875Y-11398250D02*
X8420875Y-11398250D01*
X8120875Y-13153250D02*
X8420875Y-13453250D01*
X8420875Y-13153250D02*
X8120875Y-13453250D01*
X8270875Y-13153250D02*
X8270875Y-13453250D01*
X8120875Y-13303250D02*
X8420875Y-13303250D01*
X8247875Y-6295250D02*
X8547875Y-6595250D01*
X8547875Y-6295250D02*
X8247875Y-6595250D01*
X8397875Y-6295250D02*
X8397875Y-6595250D01*
X8247875Y-6445250D02*
X8547875Y-6445250D01*
X9263875Y-7692250D02*
X9563875Y-7992250D01*
X9563875Y-7692250D02*
X9263875Y-7992250D01*
X9413875Y-7692250D02*
X9413875Y-7992250D01*
X9263875Y-7842250D02*
X9563875Y-7842250D01*
X9263875Y-9597250D02*
X9563875Y-9897250D01*
X9563875Y-9597250D02*
X9263875Y-9897250D01*
X9413875Y-9597250D02*
X9413875Y-9897250D01*
X9263875Y-9747250D02*
X9563875Y-9747250D01*
X9263875Y-11502250D02*
X9563875Y-11802250D01*
X9563875Y-11502250D02*
X9263875Y-11802250D01*
X9413875Y-11502250D02*
X9413875Y-11802250D01*
X9263875Y-11652250D02*
X9563875Y-11652250D01*
X9263875Y-13407250D02*
X9563875Y-13707250D01*
X9563875Y-13407250D02*
X9263875Y-13707250D01*
X9413875Y-13407250D02*
X9413875Y-13707250D01*
X9263875Y-13557250D02*
X9563875Y-13557250D01*
X9517875Y-6549250D02*
X9817875Y-6849250D01*
X9817875Y-6549250D02*
X9517875Y-6849250D01*
X9667875Y-6549250D02*
X9667875Y-6849250D01*
X9517875Y-6699250D02*
X9817875Y-6699250D01*
X9517875Y-8327250D02*
X9817875Y-8627250D01*
X9817875Y-8327250D02*
X9517875Y-8627250D01*
X9667875Y-8327250D02*
X9667875Y-8627250D01*
X9517875Y-8477250D02*
X9817875Y-8477250D01*
X9517875Y-10232250D02*
X9817875Y-10532250D01*
X9817875Y-10232250D02*
X9517875Y-10532250D01*
X9667875Y-10232250D02*
X9667875Y-10532250D01*
X9517875Y-10382250D02*
X9817875Y-10382250D01*
X9517875Y-12137250D02*
X9817875Y-12437250D01*
X9817875Y-12137250D02*
X9517875Y-12437250D01*
X9667875Y-12137250D02*
X9667875Y-12437250D01*
X9517875Y-12287250D02*
X9817875Y-12287250D01*
X9517875Y-14042250D02*
X9817875Y-14342250D01*
X9817875Y-14042250D02*
X9517875Y-14342250D01*
X9667875Y-14042250D02*
X9667875Y-14342250D01*
X9517875Y-14192250D02*
X9817875Y-14192250D01*
X10025875Y-8517750D02*
X10325875Y-8817750D01*
X10325875Y-8517750D02*
X10025875Y-8817750D01*
X10175875Y-8517750D02*
X10175875Y-8817750D01*
X10025875Y-8667750D02*
X10325875Y-8667750D01*
X10025875Y-12327750D02*
X10325875Y-12627750D01*
X10325875Y-12327750D02*
X10025875Y-12627750D01*
X10175875Y-12327750D02*
X10175875Y-12627750D01*
X10025875Y-12477750D02*
X10325875Y-12477750D01*
X10152875Y-6295250D02*
X10452875Y-6595250D01*
X10452875Y-6295250D02*
X10152875Y-6595250D01*
X10302875Y-6295250D02*
X10302875Y-6595250D01*
X10152875Y-6445250D02*
X10452875Y-6445250D01*
X10279875Y-9152750D02*
X10579875Y-9452750D01*
X10579875Y-9152750D02*
X10279875Y-9452750D01*
X10429875Y-9152750D02*
X10429875Y-9452750D01*
X10279875Y-9302750D02*
X10579875Y-9302750D01*
X10279875Y-12962750D02*
X10579875Y-13262750D01*
X10579875Y-12962750D02*
X10279875Y-13262750D01*
X10429875Y-12962750D02*
X10429875Y-13262750D01*
X10279875Y-13112750D02*
X10579875Y-13112750D01*
D11*
X3574494Y-15011726D02*
X3574494Y-14811726D01*
X3622113Y-14811726D01*
X3650684Y-14821250D01*
X3669732Y-14840298D01*
X3679256Y-14859345D01*
X3688780Y-14897440D01*
X3688780Y-14926012D01*
X3679256Y-14964107D01*
X3669732Y-14983155D01*
X3650684Y-15002202D01*
X3622113Y-15011726D01*
X3574494Y-15011726D01*
X3774494Y-15011726D02*
X3774494Y-14878393D01*
X3774494Y-14916488D02*
X3784018Y-14897440D01*
X3793541Y-14887917D01*
X3812589Y-14878393D01*
X3831637Y-14878393D01*
X3898303Y-15011726D02*
X3898303Y-14878393D01*
X3898303Y-14811726D02*
X3888780Y-14821250D01*
X3898303Y-14830774D01*
X3907827Y-14821250D01*
X3898303Y-14811726D01*
X3898303Y-14830774D01*
X4022113Y-15011726D02*
X4003065Y-15002202D01*
X3993541Y-14983155D01*
X3993541Y-14811726D01*
X4126875Y-15011726D02*
X4107827Y-15002202D01*
X4098303Y-14983155D01*
X4098303Y-14811726D01*
X4355446Y-15011726D02*
X4355446Y-14811726D01*
X4422113Y-14954583D01*
X4488780Y-14811726D01*
X4488780Y-15011726D01*
X4669732Y-15011726D02*
X4669732Y-14906964D01*
X4660208Y-14887917D01*
X4641161Y-14878393D01*
X4603065Y-14878393D01*
X4584018Y-14887917D01*
X4669732Y-15002202D02*
X4650684Y-15011726D01*
X4603065Y-15011726D01*
X4584018Y-15002202D01*
X4574494Y-14983155D01*
X4574494Y-14964107D01*
X4584018Y-14945059D01*
X4603065Y-14935536D01*
X4650684Y-14935536D01*
X4669732Y-14926012D01*
X4764970Y-14878393D02*
X4764970Y-15078393D01*
X4764970Y-14887917D02*
X4784018Y-14878393D01*
X4822113Y-14878393D01*
X4841161Y-14887917D01*
X4850684Y-14897440D01*
X4860208Y-14916488D01*
X4860208Y-14973631D01*
X4850684Y-14992678D01*
X4841161Y-15002202D01*
X4822113Y-15011726D01*
X4784018Y-15011726D01*
X4764970Y-15002202D01*
X4945923Y-14992678D02*
X4955446Y-15002202D01*
X4945923Y-15011726D01*
X4936399Y-15002202D01*
X4945923Y-14992678D01*
X4945923Y-15011726D01*
X4945923Y-14887917D02*
X4955446Y-14897440D01*
X4945923Y-14906964D01*
X4936399Y-14897440D01*
X4945923Y-14887917D01*
X4945923Y-14906964D01*
D12*
X3286875Y-15326250D02*
X3316875Y-15356250D01*
X3316875Y-15326250D02*
X3286875Y-15356250D01*
D11*
X3612589Y-15231726D02*
X3631637Y-15231726D01*
X3650684Y-15241250D01*
X3660208Y-15250774D01*
X3669732Y-15269821D01*
X3679256Y-15307917D01*
X3679256Y-15355536D01*
X3669732Y-15393631D01*
X3660208Y-15412678D01*
X3650684Y-15422202D01*
X3631637Y-15431726D01*
X3612589Y-15431726D01*
X3593541Y-15422202D01*
X3584018Y-15412678D01*
X3574494Y-15393631D01*
X3564970Y-15355536D01*
X3564970Y-15307917D01*
X3574494Y-15269821D01*
X3584018Y-15250774D01*
X3593541Y-15241250D01*
X3612589Y-15231726D01*
X3764970Y-15412678D02*
X3774494Y-15422202D01*
X3764970Y-15431726D01*
X3755446Y-15422202D01*
X3764970Y-15412678D01*
X3764970Y-15431726D01*
X3841161Y-15231726D02*
X3964970Y-15231726D01*
X3898303Y-15307917D01*
X3926875Y-15307917D01*
X3945922Y-15317440D01*
X3955446Y-15326964D01*
X3964970Y-15346012D01*
X3964970Y-15393631D01*
X3955446Y-15412678D01*
X3945922Y-15422202D01*
X3926875Y-15431726D01*
X3869732Y-15431726D01*
X3850684Y-15422202D01*
X3841161Y-15412678D01*
X4088780Y-15231726D02*
X4107827Y-15231726D01*
X4126875Y-15241250D01*
X4136399Y-15250774D01*
X4145922Y-15269821D01*
X4155446Y-15307917D01*
X4155446Y-15355536D01*
X4145922Y-15393631D01*
X4136399Y-15412678D01*
X4126875Y-15422202D01*
X4107827Y-15431726D01*
X4088780Y-15431726D01*
X4069732Y-15422202D01*
X4060208Y-15412678D01*
X4050684Y-15393631D01*
X4041161Y-15355536D01*
X4041161Y-15307917D01*
X4050684Y-15269821D01*
X4060208Y-15250774D01*
X4069732Y-15241250D01*
X4088780Y-15231726D01*
X4279256Y-15231726D02*
X4298303Y-15231726D01*
X4317351Y-15241250D01*
X4326875Y-15250774D01*
X4336399Y-15269821D01*
X4345923Y-15307917D01*
X4345923Y-15355536D01*
X4336399Y-15393631D01*
X4326875Y-15412678D01*
X4317351Y-15422202D01*
X4298303Y-15431726D01*
X4279256Y-15431726D01*
X4260208Y-15422202D01*
X4250684Y-15412678D01*
X4241161Y-15393631D01*
X4231637Y-15355536D01*
X4231637Y-15307917D01*
X4241161Y-15269821D01*
X4250684Y-15250774D01*
X4260208Y-15241250D01*
X4279256Y-15231726D01*
X4431637Y-15431726D02*
X4431637Y-15298393D01*
X4431637Y-15317440D02*
X4441161Y-15307917D01*
X4460208Y-15298393D01*
X4488780Y-15298393D01*
X4507827Y-15307917D01*
X4517351Y-15326964D01*
X4517351Y-15431726D01*
X4517351Y-15326964D02*
X4526875Y-15307917D01*
X4545923Y-15298393D01*
X4574494Y-15298393D01*
X4593542Y-15307917D01*
X4603065Y-15326964D01*
X4603065Y-15431726D01*
X4698303Y-15431726D02*
X4698303Y-15298393D01*
X4698303Y-15317440D02*
X4707827Y-15307917D01*
X4726875Y-15298393D01*
X4755446Y-15298393D01*
X4774494Y-15307917D01*
X4784018Y-15326964D01*
X4784018Y-15431726D01*
X4784018Y-15326964D02*
X4793542Y-15307917D01*
X4812589Y-15298393D01*
X4841161Y-15298393D01*
X4860208Y-15307917D01*
X4869732Y-15326964D01*
X4869732Y-15431726D01*
X5260208Y-15222202D02*
X5088780Y-15479345D01*
X5517351Y-15231726D02*
X5536399Y-15231726D01*
X5555446Y-15241250D01*
X5564970Y-15250774D01*
X5574494Y-15269821D01*
X5584018Y-15307917D01*
X5584018Y-15355536D01*
X5574494Y-15393631D01*
X5564970Y-15412678D01*
X5555446Y-15422202D01*
X5536399Y-15431726D01*
X5517351Y-15431726D01*
X5498303Y-15422202D01*
X5488780Y-15412678D01*
X5479256Y-15393631D01*
X5469732Y-15355536D01*
X5469732Y-15307917D01*
X5479256Y-15269821D01*
X5488780Y-15250774D01*
X5498303Y-15241250D01*
X5517351Y-15231726D01*
X5669732Y-15412678D02*
X5679256Y-15422202D01*
X5669732Y-15431726D01*
X5660208Y-15422202D01*
X5669732Y-15412678D01*
X5669732Y-15431726D01*
X5803065Y-15231726D02*
X5822113Y-15231726D01*
X5841161Y-15241250D01*
X5850684Y-15250774D01*
X5860208Y-15269821D01*
X5869732Y-15307917D01*
X5869732Y-15355536D01*
X5860208Y-15393631D01*
X5850684Y-15412678D01*
X5841161Y-15422202D01*
X5822113Y-15431726D01*
X5803065Y-15431726D01*
X5784018Y-15422202D01*
X5774494Y-15412678D01*
X5764970Y-15393631D01*
X5755446Y-15355536D01*
X5755446Y-15307917D01*
X5764970Y-15269821D01*
X5774494Y-15250774D01*
X5784018Y-15241250D01*
X5803065Y-15231726D01*
X6060208Y-15431726D02*
X5945922Y-15431726D01*
X6003065Y-15431726D02*
X6003065Y-15231726D01*
X5984018Y-15260298D01*
X5964970Y-15279345D01*
X5945922Y-15288869D01*
X6250684Y-15431726D02*
X6136399Y-15431726D01*
X6193541Y-15431726D02*
X6193541Y-15231726D01*
X6174494Y-15260298D01*
X6155446Y-15279345D01*
X6136399Y-15288869D01*
X6364970Y-15317440D02*
X6345922Y-15307917D01*
X6336399Y-15298393D01*
X6326875Y-15279345D01*
X6326875Y-15269821D01*
X6336399Y-15250774D01*
X6345922Y-15241250D01*
X6364970Y-15231726D01*
X6403065Y-15231726D01*
X6422113Y-15241250D01*
X6431637Y-15250774D01*
X6441161Y-15269821D01*
X6441161Y-15279345D01*
X6431637Y-15298393D01*
X6422113Y-15307917D01*
X6403065Y-15317440D01*
X6364970Y-15317440D01*
X6345922Y-15326964D01*
X6336399Y-15336488D01*
X6326875Y-15355536D01*
X6326875Y-15393631D01*
X6336399Y-15412678D01*
X6345922Y-15422202D01*
X6364970Y-15431726D01*
X6403065Y-15431726D01*
X6422113Y-15422202D01*
X6431637Y-15412678D01*
X6441161Y-15393631D01*
X6441161Y-15355536D01*
X6431637Y-15336488D01*
X6422113Y-15326964D01*
X6403065Y-15317440D01*
X6517351Y-15231726D02*
X6517351Y-15269821D01*
X6593541Y-15231726D02*
X6593541Y-15269821D01*
X6888780Y-15507917D02*
X6879256Y-15498393D01*
X6860208Y-15469821D01*
X6850684Y-15450774D01*
X6841161Y-15422202D01*
X6831637Y-15374583D01*
X6831637Y-15336488D01*
X6841161Y-15288869D01*
X6850684Y-15260298D01*
X6860208Y-15241250D01*
X6879256Y-15212678D01*
X6888780Y-15203155D01*
X7069732Y-15431726D02*
X6955446Y-15431726D01*
X7012589Y-15431726D02*
X7012589Y-15231726D01*
X6993541Y-15260298D01*
X6974494Y-15279345D01*
X6955446Y-15288869D01*
X7241161Y-15298393D02*
X7241161Y-15431726D01*
X7193541Y-15222202D02*
X7145922Y-15365059D01*
X7269732Y-15365059D01*
X7450684Y-15431726D02*
X7336399Y-15431726D01*
X7393541Y-15431726D02*
X7393541Y-15231726D01*
X7374494Y-15260298D01*
X7355446Y-15279345D01*
X7336399Y-15288869D01*
X7688780Y-15431726D02*
X7688780Y-15231726D01*
X7774494Y-15431726D02*
X7774494Y-15326964D01*
X7764970Y-15307917D01*
X7745922Y-15298393D01*
X7717351Y-15298393D01*
X7698303Y-15307917D01*
X7688780Y-15317440D01*
X7898303Y-15431726D02*
X7879256Y-15422202D01*
X7869732Y-15412678D01*
X7860208Y-15393631D01*
X7860208Y-15336488D01*
X7869732Y-15317440D01*
X7879256Y-15307917D01*
X7898303Y-15298393D01*
X7926875Y-15298393D01*
X7945922Y-15307917D01*
X7955446Y-15317440D01*
X7964970Y-15336488D01*
X7964970Y-15393631D01*
X7955446Y-15412678D01*
X7945922Y-15422202D01*
X7926875Y-15431726D01*
X7898303Y-15431726D01*
X8079256Y-15431726D02*
X8060208Y-15422202D01*
X8050684Y-15403155D01*
X8050684Y-15231726D01*
X8231637Y-15422202D02*
X8212589Y-15431726D01*
X8174494Y-15431726D01*
X8155446Y-15422202D01*
X8145922Y-15403155D01*
X8145922Y-15326964D01*
X8155446Y-15307917D01*
X8174494Y-15298393D01*
X8212589Y-15298393D01*
X8231637Y-15307917D01*
X8241161Y-15326964D01*
X8241161Y-15346012D01*
X8145922Y-15365059D01*
X8317351Y-15422202D02*
X8336399Y-15431726D01*
X8374494Y-15431726D01*
X8393542Y-15422202D01*
X8403065Y-15403155D01*
X8403065Y-15393631D01*
X8393542Y-15374583D01*
X8374494Y-15365059D01*
X8345922Y-15365059D01*
X8326875Y-15355536D01*
X8317351Y-15336488D01*
X8317351Y-15326964D01*
X8326875Y-15307917D01*
X8345922Y-15298393D01*
X8374494Y-15298393D01*
X8393542Y-15307917D01*
X8469732Y-15507917D02*
X8479256Y-15498393D01*
X8498303Y-15469821D01*
X8507827Y-15450774D01*
X8517351Y-15422202D01*
X8526875Y-15374583D01*
X8526875Y-15336488D01*
X8517351Y-15288869D01*
X8507827Y-15260298D01*
X8498303Y-15241250D01*
X8479256Y-15212678D01*
X8469732Y-15203155D01*
D13*
X3316875Y-15605250D02*
G75*
G03*
X3316875Y-15605250I-17500J0D01*
G01*
D11*
X3612589Y-15495726D02*
X3631637Y-15495726D01*
X3650684Y-15505250D01*
X3660208Y-15514774D01*
X3669732Y-15533821D01*
X3679256Y-15571917D01*
X3679256Y-15619536D01*
X3669732Y-15657631D01*
X3660208Y-15676678D01*
X3650684Y-15686202D01*
X3631637Y-15695726D01*
X3612589Y-15695726D01*
X3593541Y-15686202D01*
X3584018Y-15676678D01*
X3574494Y-15657631D01*
X3564970Y-15619536D01*
X3564970Y-15571917D01*
X3574494Y-15533821D01*
X3584018Y-15514774D01*
X3593541Y-15505250D01*
X3612589Y-15495726D01*
X3764970Y-15676678D02*
X3774494Y-15686202D01*
X3764970Y-15695726D01*
X3755446Y-15686202D01*
X3764970Y-15676678D01*
X3764970Y-15695726D01*
X3841161Y-15495726D02*
X3964970Y-15495726D01*
X3898303Y-15571917D01*
X3926875Y-15571917D01*
X3945922Y-15581440D01*
X3955446Y-15590964D01*
X3964970Y-15610012D01*
X3964970Y-15657631D01*
X3955446Y-15676678D01*
X3945922Y-15686202D01*
X3926875Y-15695726D01*
X3869732Y-15695726D01*
X3850684Y-15686202D01*
X3841161Y-15676678D01*
X4145922Y-15495726D02*
X4050684Y-15495726D01*
X4041161Y-15590964D01*
X4050684Y-15581440D01*
X4069732Y-15571917D01*
X4117351Y-15571917D01*
X4136399Y-15581440D01*
X4145922Y-15590964D01*
X4155446Y-15610012D01*
X4155446Y-15657631D01*
X4145922Y-15676678D01*
X4136399Y-15686202D01*
X4117351Y-15695726D01*
X4069732Y-15695726D01*
X4050684Y-15686202D01*
X4041161Y-15676678D01*
X4279256Y-15495726D02*
X4298303Y-15495726D01*
X4317351Y-15505250D01*
X4326875Y-15514774D01*
X4336399Y-15533821D01*
X4345923Y-15571917D01*
X4345923Y-15619536D01*
X4336399Y-15657631D01*
X4326875Y-15676678D01*
X4317351Y-15686202D01*
X4298303Y-15695726D01*
X4279256Y-15695726D01*
X4260208Y-15686202D01*
X4250684Y-15676678D01*
X4241161Y-15657631D01*
X4231637Y-15619536D01*
X4231637Y-15571917D01*
X4241161Y-15533821D01*
X4250684Y-15514774D01*
X4260208Y-15505250D01*
X4279256Y-15495726D01*
X4431637Y-15695726D02*
X4431637Y-15562393D01*
X4431637Y-15581440D02*
X4441161Y-15571917D01*
X4460208Y-15562393D01*
X4488780Y-15562393D01*
X4507827Y-15571917D01*
X4517351Y-15590964D01*
X4517351Y-15695726D01*
X4517351Y-15590964D02*
X4526875Y-15571917D01*
X4545923Y-15562393D01*
X4574494Y-15562393D01*
X4593542Y-15571917D01*
X4603065Y-15590964D01*
X4603065Y-15695726D01*
X4698303Y-15695726D02*
X4698303Y-15562393D01*
X4698303Y-15581440D02*
X4707827Y-15571917D01*
X4726875Y-15562393D01*
X4755446Y-15562393D01*
X4774494Y-15571917D01*
X4784018Y-15590964D01*
X4784018Y-15695726D01*
X4784018Y-15590964D02*
X4793542Y-15571917D01*
X4812589Y-15562393D01*
X4841161Y-15562393D01*
X4860208Y-15571917D01*
X4869732Y-15590964D01*
X4869732Y-15695726D01*
X5260208Y-15486202D02*
X5088780Y-15743345D01*
X5517351Y-15495726D02*
X5536399Y-15495726D01*
X5555446Y-15505250D01*
X5564970Y-15514774D01*
X5574494Y-15533821D01*
X5584018Y-15571917D01*
X5584018Y-15619536D01*
X5574494Y-15657631D01*
X5564970Y-15676678D01*
X5555446Y-15686202D01*
X5536399Y-15695726D01*
X5517351Y-15695726D01*
X5498303Y-15686202D01*
X5488780Y-15676678D01*
X5479256Y-15657631D01*
X5469732Y-15619536D01*
X5469732Y-15571917D01*
X5479256Y-15533821D01*
X5488780Y-15514774D01*
X5498303Y-15505250D01*
X5517351Y-15495726D01*
X5669732Y-15676678D02*
X5679256Y-15686202D01*
X5669732Y-15695726D01*
X5660208Y-15686202D01*
X5669732Y-15676678D01*
X5669732Y-15695726D01*
X5803065Y-15495726D02*
X5822113Y-15495726D01*
X5841161Y-15505250D01*
X5850684Y-15514774D01*
X5860208Y-15533821D01*
X5869732Y-15571917D01*
X5869732Y-15619536D01*
X5860208Y-15657631D01*
X5850684Y-15676678D01*
X5841161Y-15686202D01*
X5822113Y-15695726D01*
X5803065Y-15695726D01*
X5784018Y-15686202D01*
X5774494Y-15676678D01*
X5764970Y-15657631D01*
X5755446Y-15619536D01*
X5755446Y-15571917D01*
X5764970Y-15533821D01*
X5774494Y-15514774D01*
X5784018Y-15505250D01*
X5803065Y-15495726D01*
X6060208Y-15695726D02*
X5945922Y-15695726D01*
X6003065Y-15695726D02*
X6003065Y-15495726D01*
X5984018Y-15524298D01*
X5964970Y-15543345D01*
X5945922Y-15552869D01*
X6126875Y-15495726D02*
X6250684Y-15495726D01*
X6184018Y-15571917D01*
X6212589Y-15571917D01*
X6231637Y-15581440D01*
X6241161Y-15590964D01*
X6250684Y-15610012D01*
X6250684Y-15657631D01*
X6241161Y-15676678D01*
X6231637Y-15686202D01*
X6212589Y-15695726D01*
X6155446Y-15695726D01*
X6136399Y-15686202D01*
X6126875Y-15676678D01*
X6364970Y-15581440D02*
X6345922Y-15571917D01*
X6336399Y-15562393D01*
X6326875Y-15543345D01*
X6326875Y-15533821D01*
X6336399Y-15514774D01*
X6345922Y-15505250D01*
X6364970Y-15495726D01*
X6403065Y-15495726D01*
X6422113Y-15505250D01*
X6431637Y-15514774D01*
X6441161Y-15533821D01*
X6441161Y-15543345D01*
X6431637Y-15562393D01*
X6422113Y-15571917D01*
X6403065Y-15581440D01*
X6364970Y-15581440D01*
X6345922Y-15590964D01*
X6336399Y-15600488D01*
X6326875Y-15619536D01*
X6326875Y-15657631D01*
X6336399Y-15676678D01*
X6345922Y-15686202D01*
X6364970Y-15695726D01*
X6403065Y-15695726D01*
X6422113Y-15686202D01*
X6431637Y-15676678D01*
X6441161Y-15657631D01*
X6441161Y-15619536D01*
X6431637Y-15600488D01*
X6422113Y-15590964D01*
X6403065Y-15581440D01*
X6517351Y-15495726D02*
X6517351Y-15533821D01*
X6593541Y-15495726D02*
X6593541Y-15533821D01*
X6888780Y-15771917D02*
X6879256Y-15762393D01*
X6860208Y-15733821D01*
X6850684Y-15714774D01*
X6841161Y-15686202D01*
X6831637Y-15638583D01*
X6831637Y-15600488D01*
X6841161Y-15552869D01*
X6850684Y-15524298D01*
X6860208Y-15505250D01*
X6879256Y-15476678D01*
X6888780Y-15467155D01*
X6974494Y-15695726D02*
X7012589Y-15695726D01*
X7031637Y-15686202D01*
X7041161Y-15676678D01*
X7060208Y-15648107D01*
X7069732Y-15610012D01*
X7069732Y-15533821D01*
X7060208Y-15514774D01*
X7050684Y-15505250D01*
X7031637Y-15495726D01*
X6993541Y-15495726D01*
X6974494Y-15505250D01*
X6964970Y-15514774D01*
X6955446Y-15533821D01*
X6955446Y-15581440D01*
X6964970Y-15600488D01*
X6974494Y-15610012D01*
X6993541Y-15619536D01*
X7031637Y-15619536D01*
X7050684Y-15610012D01*
X7060208Y-15600488D01*
X7069732Y-15581440D01*
X7307827Y-15695726D02*
X7307827Y-15495726D01*
X7393541Y-15695726D02*
X7393541Y-15590964D01*
X7384018Y-15571917D01*
X7364970Y-15562393D01*
X7336399Y-15562393D01*
X7317351Y-15571917D01*
X7307827Y-15581440D01*
X7517351Y-15695726D02*
X7498303Y-15686202D01*
X7488780Y-15676678D01*
X7479256Y-15657631D01*
X7479256Y-15600488D01*
X7488780Y-15581440D01*
X7498303Y-15571917D01*
X7517351Y-15562393D01*
X7545922Y-15562393D01*
X7564970Y-15571917D01*
X7574494Y-15581440D01*
X7584018Y-15600488D01*
X7584018Y-15657631D01*
X7574494Y-15676678D01*
X7564970Y-15686202D01*
X7545922Y-15695726D01*
X7517351Y-15695726D01*
X7698303Y-15695726D02*
X7679256Y-15686202D01*
X7669732Y-15667155D01*
X7669732Y-15495726D01*
X7850684Y-15686202D02*
X7831637Y-15695726D01*
X7793541Y-15695726D01*
X7774494Y-15686202D01*
X7764970Y-15667155D01*
X7764970Y-15590964D01*
X7774494Y-15571917D01*
X7793541Y-15562393D01*
X7831637Y-15562393D01*
X7850684Y-15571917D01*
X7860208Y-15590964D01*
X7860208Y-15610012D01*
X7764970Y-15629059D01*
X7936399Y-15686202D02*
X7955446Y-15695726D01*
X7993541Y-15695726D01*
X8012589Y-15686202D01*
X8022113Y-15667155D01*
X8022113Y-15657631D01*
X8012589Y-15638583D01*
X7993541Y-15629059D01*
X7964970Y-15629059D01*
X7945922Y-15619536D01*
X7936399Y-15600488D01*
X7936399Y-15590964D01*
X7945922Y-15571917D01*
X7964970Y-15562393D01*
X7993541Y-15562393D01*
X8012589Y-15571917D01*
X8088780Y-15771917D02*
X8098303Y-15762393D01*
X8117351Y-15733821D01*
X8126875Y-15714774D01*
X8136399Y-15686202D01*
X8145922Y-15638583D01*
X8145922Y-15600488D01*
X8136399Y-15552869D01*
X8126875Y-15524298D01*
X8117351Y-15505250D01*
X8098303Y-15476678D01*
X8088780Y-15467155D01*
D14*
X3296875Y-15849250D02*
X3296875Y-15889250D01*
X3276875Y-15869250D02*
X3316875Y-15869250D01*
D11*
X3612589Y-15759726D02*
X3631637Y-15759726D01*
X3650684Y-15769250D01*
X3660208Y-15778774D01*
X3669732Y-15797821D01*
X3679256Y-15835917D01*
X3679256Y-15883536D01*
X3669732Y-15921631D01*
X3660208Y-15940678D01*
X3650684Y-15950202D01*
X3631637Y-15959726D01*
X3612589Y-15959726D01*
X3593541Y-15950202D01*
X3584018Y-15940678D01*
X3574494Y-15921631D01*
X3564970Y-15883536D01*
X3564970Y-15835917D01*
X3574494Y-15797821D01*
X3584018Y-15778774D01*
X3593541Y-15769250D01*
X3612589Y-15759726D01*
X3764970Y-15940678D02*
X3774494Y-15950202D01*
X3764970Y-15959726D01*
X3755446Y-15950202D01*
X3764970Y-15940678D01*
X3764970Y-15959726D01*
X3945922Y-15826393D02*
X3945922Y-15959726D01*
X3898303Y-15750202D02*
X3850684Y-15893059D01*
X3974494Y-15893059D01*
X4088780Y-15759726D02*
X4107827Y-15759726D01*
X4126875Y-15769250D01*
X4136399Y-15778774D01*
X4145922Y-15797821D01*
X4155446Y-15835917D01*
X4155446Y-15883536D01*
X4145922Y-15921631D01*
X4136399Y-15940678D01*
X4126875Y-15950202D01*
X4107827Y-15959726D01*
X4088780Y-15959726D01*
X4069732Y-15950202D01*
X4060208Y-15940678D01*
X4050684Y-15921631D01*
X4041161Y-15883536D01*
X4041161Y-15835917D01*
X4050684Y-15797821D01*
X4060208Y-15778774D01*
X4069732Y-15769250D01*
X4088780Y-15759726D01*
X4279256Y-15759726D02*
X4298303Y-15759726D01*
X4317351Y-15769250D01*
X4326875Y-15778774D01*
X4336399Y-15797821D01*
X4345923Y-15835917D01*
X4345923Y-15883536D01*
X4336399Y-15921631D01*
X4326875Y-15940678D01*
X4317351Y-15950202D01*
X4298303Y-15959726D01*
X4279256Y-15959726D01*
X4260208Y-15950202D01*
X4250684Y-15940678D01*
X4241161Y-15921631D01*
X4231637Y-15883536D01*
X4231637Y-15835917D01*
X4241161Y-15797821D01*
X4250684Y-15778774D01*
X4260208Y-15769250D01*
X4279256Y-15759726D01*
X4431637Y-15959726D02*
X4431637Y-15826393D01*
X4431637Y-15845440D02*
X4441161Y-15835917D01*
X4460208Y-15826393D01*
X4488780Y-15826393D01*
X4507827Y-15835917D01*
X4517351Y-15854964D01*
X4517351Y-15959726D01*
X4517351Y-15854964D02*
X4526875Y-15835917D01*
X4545923Y-15826393D01*
X4574494Y-15826393D01*
X4593542Y-15835917D01*
X4603065Y-15854964D01*
X4603065Y-15959726D01*
X4698303Y-15959726D02*
X4698303Y-15826393D01*
X4698303Y-15845440D02*
X4707827Y-15835917D01*
X4726875Y-15826393D01*
X4755446Y-15826393D01*
X4774494Y-15835917D01*
X4784018Y-15854964D01*
X4784018Y-15959726D01*
X4784018Y-15854964D02*
X4793542Y-15835917D01*
X4812589Y-15826393D01*
X4841161Y-15826393D01*
X4860208Y-15835917D01*
X4869732Y-15854964D01*
X4869732Y-15959726D01*
X5260208Y-15750202D02*
X5088780Y-16007345D01*
X5517351Y-15759726D02*
X5536399Y-15759726D01*
X5555446Y-15769250D01*
X5564970Y-15778774D01*
X5574494Y-15797821D01*
X5584018Y-15835917D01*
X5584018Y-15883536D01*
X5574494Y-15921631D01*
X5564970Y-15940678D01*
X5555446Y-15950202D01*
X5536399Y-15959726D01*
X5517351Y-15959726D01*
X5498303Y-15950202D01*
X5488780Y-15940678D01*
X5479256Y-15921631D01*
X5469732Y-15883536D01*
X5469732Y-15835917D01*
X5479256Y-15797821D01*
X5488780Y-15778774D01*
X5498303Y-15769250D01*
X5517351Y-15759726D01*
X5669732Y-15940678D02*
X5679256Y-15950202D01*
X5669732Y-15959726D01*
X5660208Y-15950202D01*
X5669732Y-15940678D01*
X5669732Y-15959726D01*
X5803065Y-15759726D02*
X5822113Y-15759726D01*
X5841161Y-15769250D01*
X5850684Y-15778774D01*
X5860208Y-15797821D01*
X5869732Y-15835917D01*
X5869732Y-15883536D01*
X5860208Y-15921631D01*
X5850684Y-15940678D01*
X5841161Y-15950202D01*
X5822113Y-15959726D01*
X5803065Y-15959726D01*
X5784018Y-15950202D01*
X5774494Y-15940678D01*
X5764970Y-15921631D01*
X5755446Y-15883536D01*
X5755446Y-15835917D01*
X5764970Y-15797821D01*
X5774494Y-15778774D01*
X5784018Y-15769250D01*
X5803065Y-15759726D01*
X6060208Y-15959726D02*
X5945922Y-15959726D01*
X6003065Y-15959726D02*
X6003065Y-15759726D01*
X5984018Y-15788298D01*
X5964970Y-15807345D01*
X5945922Y-15816869D01*
X6241161Y-15759726D02*
X6145922Y-15759726D01*
X6136399Y-15854964D01*
X6145922Y-15845440D01*
X6164970Y-15835917D01*
X6212589Y-15835917D01*
X6231637Y-15845440D01*
X6241161Y-15854964D01*
X6250684Y-15874012D01*
X6250684Y-15921631D01*
X6241161Y-15940678D01*
X6231637Y-15950202D01*
X6212589Y-15959726D01*
X6164970Y-15959726D01*
X6145922Y-15950202D01*
X6136399Y-15940678D01*
X6317351Y-15759726D02*
X6450684Y-15759726D01*
X6364970Y-15959726D01*
X6517351Y-15759726D02*
X6517351Y-15797821D01*
X6593541Y-15759726D02*
X6593541Y-15797821D01*
X6888780Y-16035917D02*
X6879256Y-16026393D01*
X6860208Y-15997821D01*
X6850684Y-15978774D01*
X6841161Y-15950202D01*
X6831637Y-15902583D01*
X6831637Y-15864488D01*
X6841161Y-15816869D01*
X6850684Y-15788298D01*
X6860208Y-15769250D01*
X6879256Y-15740678D01*
X6888780Y-15731155D01*
X7050684Y-15759726D02*
X7012589Y-15759726D01*
X6993541Y-15769250D01*
X6984018Y-15778774D01*
X6964970Y-15807345D01*
X6955446Y-15845440D01*
X6955446Y-15921631D01*
X6964970Y-15940678D01*
X6974494Y-15950202D01*
X6993541Y-15959726D01*
X7031637Y-15959726D01*
X7050684Y-15950202D01*
X7060208Y-15940678D01*
X7069732Y-15921631D01*
X7069732Y-15874012D01*
X7060208Y-15854964D01*
X7050684Y-15845440D01*
X7031637Y-15835917D01*
X6993541Y-15835917D01*
X6974494Y-15845440D01*
X6964970Y-15854964D01*
X6955446Y-15874012D01*
X7307827Y-15959726D02*
X7307827Y-15759726D01*
X7393541Y-15959726D02*
X7393541Y-15854964D01*
X7384018Y-15835917D01*
X7364970Y-15826393D01*
X7336399Y-15826393D01*
X7317351Y-15835917D01*
X7307827Y-15845440D01*
X7517351Y-15959726D02*
X7498303Y-15950202D01*
X7488780Y-15940678D01*
X7479256Y-15921631D01*
X7479256Y-15864488D01*
X7488780Y-15845440D01*
X7498303Y-15835917D01*
X7517351Y-15826393D01*
X7545922Y-15826393D01*
X7564970Y-15835917D01*
X7574494Y-15845440D01*
X7584018Y-15864488D01*
X7584018Y-15921631D01*
X7574494Y-15940678D01*
X7564970Y-15950202D01*
X7545922Y-15959726D01*
X7517351Y-15959726D01*
X7698303Y-15959726D02*
X7679256Y-15950202D01*
X7669732Y-15931155D01*
X7669732Y-15759726D01*
X7850684Y-15950202D02*
X7831637Y-15959726D01*
X7793541Y-15959726D01*
X7774494Y-15950202D01*
X7764970Y-15931155D01*
X7764970Y-15854964D01*
X7774494Y-15835917D01*
X7793541Y-15826393D01*
X7831637Y-15826393D01*
X7850684Y-15835917D01*
X7860208Y-15854964D01*
X7860208Y-15874012D01*
X7764970Y-15893059D01*
X7936399Y-15950202D02*
X7955446Y-15959726D01*
X7993541Y-15959726D01*
X8012589Y-15950202D01*
X8022113Y-15931155D01*
X8022113Y-15921631D01*
X8012589Y-15902583D01*
X7993541Y-15893059D01*
X7964970Y-15893059D01*
X7945922Y-15883536D01*
X7936399Y-15864488D01*
X7936399Y-15854964D01*
X7945922Y-15835917D01*
X7964970Y-15826393D01*
X7993541Y-15826393D01*
X8012589Y-15835917D01*
X8088780Y-16035917D02*
X8098303Y-16026393D01*
X8117351Y-15997821D01*
X8126875Y-15978774D01*
X8136399Y-15950202D01*
X8145922Y-15902583D01*
X8145922Y-15864488D01*
X8136399Y-15816869D01*
X8126875Y-15788298D01*
X8117351Y-15769250D01*
X8098303Y-15740678D01*
X8088780Y-15731155D01*
D15*
X3308088Y-16154463D02*
X3308088Y-16112037D01*
X3265661Y-16112037D01*
X3265661Y-16154463D01*
X3308088Y-16154463D01*
D11*
X3612589Y-16023726D02*
X3631637Y-16023726D01*
X3650684Y-16033250D01*
X3660208Y-16042774D01*
X3669732Y-16061821D01*
X3679256Y-16099917D01*
X3679256Y-16147536D01*
X3669732Y-16185631D01*
X3660208Y-16204678D01*
X3650684Y-16214202D01*
X3631637Y-16223726D01*
X3612589Y-16223726D01*
X3593541Y-16214202D01*
X3584018Y-16204678D01*
X3574494Y-16185631D01*
X3564970Y-16147536D01*
X3564970Y-16099917D01*
X3574494Y-16061821D01*
X3584018Y-16042774D01*
X3593541Y-16033250D01*
X3612589Y-16023726D01*
X3764970Y-16204678D02*
X3774494Y-16214202D01*
X3764970Y-16223726D01*
X3755446Y-16214202D01*
X3764970Y-16204678D01*
X3764970Y-16223726D01*
X3945922Y-16023726D02*
X3907827Y-16023726D01*
X3888780Y-16033250D01*
X3879256Y-16042774D01*
X3860208Y-16071345D01*
X3850684Y-16109440D01*
X3850684Y-16185631D01*
X3860208Y-16204678D01*
X3869732Y-16214202D01*
X3888780Y-16223726D01*
X3926875Y-16223726D01*
X3945922Y-16214202D01*
X3955446Y-16204678D01*
X3964970Y-16185631D01*
X3964970Y-16138012D01*
X3955446Y-16118964D01*
X3945922Y-16109440D01*
X3926875Y-16099917D01*
X3888780Y-16099917D01*
X3869732Y-16109440D01*
X3860208Y-16118964D01*
X3850684Y-16138012D01*
X4088780Y-16023726D02*
X4107827Y-16023726D01*
X4126875Y-16033250D01*
X4136399Y-16042774D01*
X4145922Y-16061821D01*
X4155446Y-16099917D01*
X4155446Y-16147536D01*
X4145922Y-16185631D01*
X4136399Y-16204678D01*
X4126875Y-16214202D01*
X4107827Y-16223726D01*
X4088780Y-16223726D01*
X4069732Y-16214202D01*
X4060208Y-16204678D01*
X4050684Y-16185631D01*
X4041161Y-16147536D01*
X4041161Y-16099917D01*
X4050684Y-16061821D01*
X4060208Y-16042774D01*
X4069732Y-16033250D01*
X4088780Y-16023726D01*
X4279256Y-16023726D02*
X4298303Y-16023726D01*
X4317351Y-16033250D01*
X4326875Y-16042774D01*
X4336399Y-16061821D01*
X4345923Y-16099917D01*
X4345923Y-16147536D01*
X4336399Y-16185631D01*
X4326875Y-16204678D01*
X4317351Y-16214202D01*
X4298303Y-16223726D01*
X4279256Y-16223726D01*
X4260208Y-16214202D01*
X4250684Y-16204678D01*
X4241161Y-16185631D01*
X4231637Y-16147536D01*
X4231637Y-16099917D01*
X4241161Y-16061821D01*
X4250684Y-16042774D01*
X4260208Y-16033250D01*
X4279256Y-16023726D01*
X4431637Y-16223726D02*
X4431637Y-16090393D01*
X4431637Y-16109440D02*
X4441161Y-16099917D01*
X4460208Y-16090393D01*
X4488780Y-16090393D01*
X4507827Y-16099917D01*
X4517351Y-16118964D01*
X4517351Y-16223726D01*
X4517351Y-16118964D02*
X4526875Y-16099917D01*
X4545923Y-16090393D01*
X4574494Y-16090393D01*
X4593542Y-16099917D01*
X4603065Y-16118964D01*
X4603065Y-16223726D01*
X4698303Y-16223726D02*
X4698303Y-16090393D01*
X4698303Y-16109440D02*
X4707827Y-16099917D01*
X4726875Y-16090393D01*
X4755446Y-16090393D01*
X4774494Y-16099917D01*
X4784018Y-16118964D01*
X4784018Y-16223726D01*
X4784018Y-16118964D02*
X4793542Y-16099917D01*
X4812589Y-16090393D01*
X4841161Y-16090393D01*
X4860208Y-16099917D01*
X4869732Y-16118964D01*
X4869732Y-16223726D01*
X5260208Y-16014202D02*
X5088780Y-16271345D01*
X5517351Y-16023726D02*
X5536399Y-16023726D01*
X5555446Y-16033250D01*
X5564970Y-16042774D01*
X5574494Y-16061821D01*
X5584018Y-16099917D01*
X5584018Y-16147536D01*
X5574494Y-16185631D01*
X5564970Y-16204678D01*
X5555446Y-16214202D01*
X5536399Y-16223726D01*
X5517351Y-16223726D01*
X5498303Y-16214202D01*
X5488780Y-16204678D01*
X5479256Y-16185631D01*
X5469732Y-16147536D01*
X5469732Y-16099917D01*
X5479256Y-16061821D01*
X5488780Y-16042774D01*
X5498303Y-16033250D01*
X5517351Y-16023726D01*
X5669732Y-16204678D02*
X5679256Y-16214202D01*
X5669732Y-16223726D01*
X5660208Y-16214202D01*
X5669732Y-16204678D01*
X5669732Y-16223726D01*
X5803065Y-16023726D02*
X5822113Y-16023726D01*
X5841161Y-16033250D01*
X5850684Y-16042774D01*
X5860208Y-16061821D01*
X5869732Y-16099917D01*
X5869732Y-16147536D01*
X5860208Y-16185631D01*
X5850684Y-16204678D01*
X5841161Y-16214202D01*
X5822113Y-16223726D01*
X5803065Y-16223726D01*
X5784018Y-16214202D01*
X5774494Y-16204678D01*
X5764970Y-16185631D01*
X5755446Y-16147536D01*
X5755446Y-16099917D01*
X5764970Y-16061821D01*
X5774494Y-16042774D01*
X5784018Y-16033250D01*
X5803065Y-16023726D01*
X5945922Y-16042774D02*
X5955446Y-16033250D01*
X5974494Y-16023726D01*
X6022113Y-16023726D01*
X6041161Y-16033250D01*
X6050684Y-16042774D01*
X6060208Y-16061821D01*
X6060208Y-16080869D01*
X6050684Y-16109440D01*
X5936399Y-16223726D01*
X6060208Y-16223726D01*
X6126875Y-16023726D02*
X6250684Y-16023726D01*
X6184018Y-16099917D01*
X6212589Y-16099917D01*
X6231637Y-16109440D01*
X6241161Y-16118964D01*
X6250684Y-16138012D01*
X6250684Y-16185631D01*
X6241161Y-16204678D01*
X6231637Y-16214202D01*
X6212589Y-16223726D01*
X6155446Y-16223726D01*
X6136399Y-16214202D01*
X6126875Y-16204678D01*
X6422113Y-16023726D02*
X6384018Y-16023726D01*
X6364970Y-16033250D01*
X6355446Y-16042774D01*
X6336399Y-16071345D01*
X6326875Y-16109440D01*
X6326875Y-16185631D01*
X6336399Y-16204678D01*
X6345922Y-16214202D01*
X6364970Y-16223726D01*
X6403065Y-16223726D01*
X6422113Y-16214202D01*
X6431637Y-16204678D01*
X6441161Y-16185631D01*
X6441161Y-16138012D01*
X6431637Y-16118964D01*
X6422113Y-16109440D01*
X6403065Y-16099917D01*
X6364970Y-16099917D01*
X6345922Y-16109440D01*
X6336399Y-16118964D01*
X6326875Y-16138012D01*
X6517351Y-16023726D02*
X6517351Y-16061821D01*
X6593541Y-16023726D02*
X6593541Y-16061821D01*
X6888780Y-16299917D02*
X6879256Y-16290393D01*
X6860208Y-16261821D01*
X6850684Y-16242774D01*
X6841161Y-16214202D01*
X6831637Y-16166583D01*
X6831637Y-16128488D01*
X6841161Y-16080869D01*
X6850684Y-16052298D01*
X6860208Y-16033250D01*
X6879256Y-16004678D01*
X6888780Y-15995155D01*
X7003065Y-16023726D02*
X7022113Y-16023726D01*
X7041161Y-16033250D01*
X7050684Y-16042774D01*
X7060208Y-16061821D01*
X7069732Y-16099917D01*
X7069732Y-16147536D01*
X7060208Y-16185631D01*
X7050684Y-16204678D01*
X7041161Y-16214202D01*
X7022113Y-16223726D01*
X7003065Y-16223726D01*
X6984018Y-16214202D01*
X6974494Y-16204678D01*
X6964970Y-16185631D01*
X6955446Y-16147536D01*
X6955446Y-16099917D01*
X6964970Y-16061821D01*
X6974494Y-16042774D01*
X6984018Y-16033250D01*
X7003065Y-16023726D01*
X7307827Y-16223726D02*
X7307827Y-16023726D01*
X7393541Y-16223726D02*
X7393541Y-16118964D01*
X7384018Y-16099917D01*
X7364970Y-16090393D01*
X7336399Y-16090393D01*
X7317351Y-16099917D01*
X7307827Y-16109440D01*
X7517351Y-16223726D02*
X7498303Y-16214202D01*
X7488780Y-16204678D01*
X7479256Y-16185631D01*
X7479256Y-16128488D01*
X7488780Y-16109440D01*
X7498303Y-16099917D01*
X7517351Y-16090393D01*
X7545922Y-16090393D01*
X7564970Y-16099917D01*
X7574494Y-16109440D01*
X7584018Y-16128488D01*
X7584018Y-16185631D01*
X7574494Y-16204678D01*
X7564970Y-16214202D01*
X7545922Y-16223726D01*
X7517351Y-16223726D01*
X7698303Y-16223726D02*
X7679256Y-16214202D01*
X7669732Y-16195155D01*
X7669732Y-16023726D01*
X7850684Y-16214202D02*
X7831637Y-16223726D01*
X7793541Y-16223726D01*
X7774494Y-16214202D01*
X7764970Y-16195155D01*
X7764970Y-16118964D01*
X7774494Y-16099917D01*
X7793541Y-16090393D01*
X7831637Y-16090393D01*
X7850684Y-16099917D01*
X7860208Y-16118964D01*
X7860208Y-16138012D01*
X7764970Y-16157059D01*
X7936399Y-16214202D02*
X7955446Y-16223726D01*
X7993541Y-16223726D01*
X8012589Y-16214202D01*
X8022113Y-16195155D01*
X8022113Y-16185631D01*
X8012589Y-16166583D01*
X7993541Y-16157059D01*
X7964970Y-16157059D01*
X7945922Y-16147536D01*
X7936399Y-16128488D01*
X7936399Y-16118964D01*
X7945922Y-16099917D01*
X7964970Y-16090393D01*
X7993541Y-16090393D01*
X8012589Y-16099917D01*
X8260208Y-16147536D02*
X8412589Y-16147536D01*
X8336399Y-16223726D02*
X8336399Y-16071345D01*
X8745923Y-16090393D02*
X8745923Y-16223726D01*
X8698303Y-16014202D02*
X8650684Y-16157059D01*
X8774494Y-16157059D01*
X8993542Y-16214202D02*
X9012589Y-16223726D01*
X9050684Y-16223726D01*
X9069732Y-16214202D01*
X9079256Y-16195155D01*
X9079256Y-16185631D01*
X9069732Y-16166583D01*
X9050684Y-16157059D01*
X9022113Y-16157059D01*
X9003065Y-16147536D01*
X8993542Y-16128488D01*
X8993542Y-16118964D01*
X9003065Y-16099917D01*
X9022113Y-16090393D01*
X9050684Y-16090393D01*
X9069732Y-16099917D01*
X9193542Y-16223726D02*
X9174494Y-16214202D01*
X9164970Y-16195155D01*
X9164970Y-16023726D01*
X9298303Y-16223726D02*
X9279256Y-16214202D01*
X9269732Y-16204678D01*
X9260208Y-16185631D01*
X9260208Y-16128488D01*
X9269732Y-16109440D01*
X9279256Y-16099917D01*
X9298303Y-16090393D01*
X9326875Y-16090393D01*
X9345923Y-16099917D01*
X9355446Y-16109440D01*
X9364970Y-16128488D01*
X9364970Y-16185631D01*
X9355446Y-16204678D01*
X9345923Y-16214202D01*
X9326875Y-16223726D01*
X9298303Y-16223726D01*
X9422113Y-16090393D02*
X9498303Y-16090393D01*
X9450684Y-16023726D02*
X9450684Y-16195155D01*
X9460208Y-16214202D01*
X9479256Y-16223726D01*
X9498303Y-16223726D01*
X9555446Y-16214202D02*
X9574494Y-16223726D01*
X9612589Y-16223726D01*
X9631637Y-16214202D01*
X9641161Y-16195155D01*
X9641161Y-16185631D01*
X9631637Y-16166583D01*
X9612589Y-16157059D01*
X9584018Y-16157059D01*
X9564970Y-16147536D01*
X9555446Y-16128488D01*
X9555446Y-16118964D01*
X9564970Y-16099917D01*
X9584018Y-16090393D01*
X9612589Y-16090393D01*
X9631637Y-16099917D01*
X9707827Y-16299917D02*
X9717351Y-16290393D01*
X9736399Y-16261821D01*
X9745923Y-16242774D01*
X9755446Y-16214202D01*
X9764970Y-16166583D01*
X9764970Y-16128488D01*
X9755446Y-16080869D01*
X9745923Y-16052298D01*
X9736399Y-16033250D01*
X9717351Y-16004678D01*
X9707827Y-15995155D01*
D16*
X3266875Y-16447250D02*
X3316875Y-16397250D01*
X3266875Y-16347250D01*
X3216875Y-16397250D01*
X3266875Y-16447250D01*
D11*
X3679256Y-16487726D02*
X3564970Y-16487726D01*
X3622113Y-16487726D02*
X3622113Y-16287726D01*
X3603065Y-16316298D01*
X3584018Y-16335345D01*
X3564970Y-16344869D01*
X3764970Y-16468678D02*
X3774494Y-16478202D01*
X3764970Y-16487726D01*
X3755446Y-16478202D01*
X3764970Y-16468678D01*
X3764970Y-16487726D01*
X3898303Y-16287726D02*
X3917351Y-16287726D01*
X3936399Y-16297250D01*
X3945922Y-16306774D01*
X3955446Y-16325821D01*
X3964970Y-16363917D01*
X3964970Y-16411536D01*
X3955446Y-16449631D01*
X3945922Y-16468678D01*
X3936399Y-16478202D01*
X3917351Y-16487726D01*
X3898303Y-16487726D01*
X3879256Y-16478202D01*
X3869732Y-16468678D01*
X3860208Y-16449631D01*
X3850684Y-16411536D01*
X3850684Y-16363917D01*
X3860208Y-16325821D01*
X3869732Y-16306774D01*
X3879256Y-16297250D01*
X3898303Y-16287726D01*
X4088780Y-16287726D02*
X4107827Y-16287726D01*
X4126875Y-16297250D01*
X4136399Y-16306774D01*
X4145922Y-16325821D01*
X4155446Y-16363917D01*
X4155446Y-16411536D01*
X4145922Y-16449631D01*
X4136399Y-16468678D01*
X4126875Y-16478202D01*
X4107827Y-16487726D01*
X4088780Y-16487726D01*
X4069732Y-16478202D01*
X4060208Y-16468678D01*
X4050684Y-16449631D01*
X4041161Y-16411536D01*
X4041161Y-16363917D01*
X4050684Y-16325821D01*
X4060208Y-16306774D01*
X4069732Y-16297250D01*
X4088780Y-16287726D01*
X4279256Y-16287726D02*
X4298303Y-16287726D01*
X4317351Y-16297250D01*
X4326875Y-16306774D01*
X4336399Y-16325821D01*
X4345923Y-16363917D01*
X4345923Y-16411536D01*
X4336399Y-16449631D01*
X4326875Y-16468678D01*
X4317351Y-16478202D01*
X4298303Y-16487726D01*
X4279256Y-16487726D01*
X4260208Y-16478202D01*
X4250684Y-16468678D01*
X4241161Y-16449631D01*
X4231637Y-16411536D01*
X4231637Y-16363917D01*
X4241161Y-16325821D01*
X4250684Y-16306774D01*
X4260208Y-16297250D01*
X4279256Y-16287726D01*
X4431637Y-16487726D02*
X4431637Y-16354393D01*
X4431637Y-16373440D02*
X4441161Y-16363917D01*
X4460208Y-16354393D01*
X4488780Y-16354393D01*
X4507827Y-16363917D01*
X4517351Y-16382964D01*
X4517351Y-16487726D01*
X4517351Y-16382964D02*
X4526875Y-16363917D01*
X4545923Y-16354393D01*
X4574494Y-16354393D01*
X4593542Y-16363917D01*
X4603065Y-16382964D01*
X4603065Y-16487726D01*
X4698303Y-16487726D02*
X4698303Y-16354393D01*
X4698303Y-16373440D02*
X4707827Y-16363917D01*
X4726875Y-16354393D01*
X4755446Y-16354393D01*
X4774494Y-16363917D01*
X4784018Y-16382964D01*
X4784018Y-16487726D01*
X4784018Y-16382964D02*
X4793542Y-16363917D01*
X4812589Y-16354393D01*
X4841161Y-16354393D01*
X4860208Y-16363917D01*
X4869732Y-16382964D01*
X4869732Y-16487726D01*
X5260208Y-16278202D02*
X5088780Y-16535345D01*
X5517351Y-16287726D02*
X5536399Y-16287726D01*
X5555446Y-16297250D01*
X5564970Y-16306774D01*
X5574494Y-16325821D01*
X5584018Y-16363917D01*
X5584018Y-16411536D01*
X5574494Y-16449631D01*
X5564970Y-16468678D01*
X5555446Y-16478202D01*
X5536399Y-16487726D01*
X5517351Y-16487726D01*
X5498303Y-16478202D01*
X5488780Y-16468678D01*
X5479256Y-16449631D01*
X5469732Y-16411536D01*
X5469732Y-16363917D01*
X5479256Y-16325821D01*
X5488780Y-16306774D01*
X5498303Y-16297250D01*
X5517351Y-16287726D01*
X5669732Y-16468678D02*
X5679256Y-16478202D01*
X5669732Y-16487726D01*
X5660208Y-16478202D01*
X5669732Y-16468678D01*
X5669732Y-16487726D01*
X5803065Y-16287726D02*
X5822113Y-16287726D01*
X5841161Y-16297250D01*
X5850684Y-16306774D01*
X5860208Y-16325821D01*
X5869732Y-16363917D01*
X5869732Y-16411536D01*
X5860208Y-16449631D01*
X5850684Y-16468678D01*
X5841161Y-16478202D01*
X5822113Y-16487726D01*
X5803065Y-16487726D01*
X5784018Y-16478202D01*
X5774494Y-16468678D01*
X5764970Y-16449631D01*
X5755446Y-16411536D01*
X5755446Y-16363917D01*
X5764970Y-16325821D01*
X5774494Y-16306774D01*
X5784018Y-16297250D01*
X5803065Y-16287726D01*
X5936399Y-16287726D02*
X6060208Y-16287726D01*
X5993541Y-16363917D01*
X6022113Y-16363917D01*
X6041161Y-16373440D01*
X6050684Y-16382964D01*
X6060208Y-16402012D01*
X6060208Y-16449631D01*
X6050684Y-16468678D01*
X6041161Y-16478202D01*
X6022113Y-16487726D01*
X5964970Y-16487726D01*
X5945922Y-16478202D01*
X5936399Y-16468678D01*
X6155446Y-16487726D02*
X6193541Y-16487726D01*
X6212589Y-16478202D01*
X6222113Y-16468678D01*
X6241161Y-16440107D01*
X6250684Y-16402012D01*
X6250684Y-16325821D01*
X6241161Y-16306774D01*
X6231637Y-16297250D01*
X6212589Y-16287726D01*
X6174494Y-16287726D01*
X6155446Y-16297250D01*
X6145922Y-16306774D01*
X6136399Y-16325821D01*
X6136399Y-16373440D01*
X6145922Y-16392488D01*
X6155446Y-16402012D01*
X6174494Y-16411536D01*
X6212589Y-16411536D01*
X6231637Y-16402012D01*
X6241161Y-16392488D01*
X6250684Y-16373440D01*
X6422113Y-16354393D02*
X6422113Y-16487726D01*
X6374494Y-16278202D02*
X6326875Y-16421059D01*
X6450684Y-16421059D01*
X6517351Y-16287726D02*
X6517351Y-16325821D01*
X6593541Y-16287726D02*
X6593541Y-16325821D01*
X6888780Y-16563917D02*
X6879256Y-16554393D01*
X6860208Y-16525821D01*
X6850684Y-16506774D01*
X6841161Y-16478202D01*
X6831637Y-16430583D01*
X6831637Y-16392488D01*
X6841161Y-16344869D01*
X6850684Y-16316298D01*
X6860208Y-16297250D01*
X6879256Y-16268678D01*
X6888780Y-16259155D01*
X6945922Y-16287726D02*
X7079256Y-16287726D01*
X6993541Y-16487726D01*
X7307827Y-16487726D02*
X7307827Y-16287726D01*
X7393541Y-16487726D02*
X7393541Y-16382964D01*
X7384018Y-16363917D01*
X7364970Y-16354393D01*
X7336399Y-16354393D01*
X7317351Y-16363917D01*
X7307827Y-16373440D01*
X7517351Y-16487726D02*
X7498303Y-16478202D01*
X7488780Y-16468678D01*
X7479256Y-16449631D01*
X7479256Y-16392488D01*
X7488780Y-16373440D01*
X7498303Y-16363917D01*
X7517351Y-16354393D01*
X7545922Y-16354393D01*
X7564970Y-16363917D01*
X7574494Y-16373440D01*
X7584018Y-16392488D01*
X7584018Y-16449631D01*
X7574494Y-16468678D01*
X7564970Y-16478202D01*
X7545922Y-16487726D01*
X7517351Y-16487726D01*
X7698303Y-16487726D02*
X7679256Y-16478202D01*
X7669732Y-16459155D01*
X7669732Y-16287726D01*
X7850684Y-16478202D02*
X7831637Y-16487726D01*
X7793541Y-16487726D01*
X7774494Y-16478202D01*
X7764970Y-16459155D01*
X7764970Y-16382964D01*
X7774494Y-16363917D01*
X7793541Y-16354393D01*
X7831637Y-16354393D01*
X7850684Y-16363917D01*
X7860208Y-16382964D01*
X7860208Y-16402012D01*
X7764970Y-16421059D01*
X7936399Y-16478202D02*
X7955446Y-16487726D01*
X7993541Y-16487726D01*
X8012589Y-16478202D01*
X8022113Y-16459155D01*
X8022113Y-16449631D01*
X8012589Y-16430583D01*
X7993541Y-16421059D01*
X7964970Y-16421059D01*
X7945922Y-16411536D01*
X7936399Y-16392488D01*
X7936399Y-16382964D01*
X7945922Y-16363917D01*
X7964970Y-16354393D01*
X7993541Y-16354393D01*
X8012589Y-16363917D01*
X8088780Y-16563917D02*
X8098303Y-16554393D01*
X8117351Y-16525821D01*
X8126875Y-16506774D01*
X8136399Y-16478202D01*
X8145922Y-16430583D01*
X8145922Y-16392488D01*
X8136399Y-16344869D01*
X8126875Y-16316298D01*
X8117351Y-16297250D01*
X8098303Y-16268678D01*
X8088780Y-16259155D01*
X3116875Y-16561250D02*
X3316875Y-16761250D01*
X3316875Y-16561250D02*
X3116875Y-16761250D01*
X3316875Y-16661250D02*
G75*
G03*
X3316875Y-16661250I-100000J0D01*
G01*
X3564970Y-16570774D02*
X3574494Y-16561250D01*
X3593541Y-16551726D01*
X3641161Y-16551726D01*
X3660208Y-16561250D01*
X3669732Y-16570774D01*
X3679256Y-16589821D01*
X3679256Y-16608869D01*
X3669732Y-16637440D01*
X3555446Y-16751726D01*
X3679256Y-16751726D01*
X3764970Y-16732678D02*
X3774494Y-16742202D01*
X3764970Y-16751726D01*
X3755446Y-16742202D01*
X3764970Y-16732678D01*
X3764970Y-16751726D01*
X3850684Y-16570774D02*
X3860208Y-16561250D01*
X3879256Y-16551726D01*
X3926875Y-16551726D01*
X3945922Y-16561250D01*
X3955446Y-16570774D01*
X3964970Y-16589821D01*
X3964970Y-16608869D01*
X3955446Y-16637440D01*
X3841161Y-16751726D01*
X3964970Y-16751726D01*
X4088780Y-16551726D02*
X4107827Y-16551726D01*
X4126875Y-16561250D01*
X4136399Y-16570774D01*
X4145922Y-16589821D01*
X4155446Y-16627917D01*
X4155446Y-16675536D01*
X4145922Y-16713631D01*
X4136399Y-16732678D01*
X4126875Y-16742202D01*
X4107827Y-16751726D01*
X4088780Y-16751726D01*
X4069732Y-16742202D01*
X4060208Y-16732678D01*
X4050684Y-16713631D01*
X4041161Y-16675536D01*
X4041161Y-16627917D01*
X4050684Y-16589821D01*
X4060208Y-16570774D01*
X4069732Y-16561250D01*
X4088780Y-16551726D01*
X4279256Y-16551726D02*
X4298303Y-16551726D01*
X4317351Y-16561250D01*
X4326875Y-16570774D01*
X4336399Y-16589821D01*
X4345923Y-16627917D01*
X4345923Y-16675536D01*
X4336399Y-16713631D01*
X4326875Y-16732678D01*
X4317351Y-16742202D01*
X4298303Y-16751726D01*
X4279256Y-16751726D01*
X4260208Y-16742202D01*
X4250684Y-16732678D01*
X4241161Y-16713631D01*
X4231637Y-16675536D01*
X4231637Y-16627917D01*
X4241161Y-16589821D01*
X4250684Y-16570774D01*
X4260208Y-16561250D01*
X4279256Y-16551726D01*
X4431637Y-16751726D02*
X4431637Y-16618393D01*
X4431637Y-16637440D02*
X4441161Y-16627917D01*
X4460208Y-16618393D01*
X4488780Y-16618393D01*
X4507827Y-16627917D01*
X4517351Y-16646964D01*
X4517351Y-16751726D01*
X4517351Y-16646964D02*
X4526875Y-16627917D01*
X4545923Y-16618393D01*
X4574494Y-16618393D01*
X4593542Y-16627917D01*
X4603065Y-16646964D01*
X4603065Y-16751726D01*
X4698303Y-16751726D02*
X4698303Y-16618393D01*
X4698303Y-16637440D02*
X4707827Y-16627917D01*
X4726875Y-16618393D01*
X4755446Y-16618393D01*
X4774494Y-16627917D01*
X4784018Y-16646964D01*
X4784018Y-16751726D01*
X4784018Y-16646964D02*
X4793542Y-16627917D01*
X4812589Y-16618393D01*
X4841161Y-16618393D01*
X4860208Y-16627917D01*
X4869732Y-16646964D01*
X4869732Y-16751726D01*
X5260208Y-16542202D02*
X5088780Y-16799345D01*
X5517351Y-16551726D02*
X5536399Y-16551726D01*
X5555446Y-16561250D01*
X5564970Y-16570774D01*
X5574494Y-16589821D01*
X5584018Y-16627917D01*
X5584018Y-16675536D01*
X5574494Y-16713631D01*
X5564970Y-16732678D01*
X5555446Y-16742202D01*
X5536399Y-16751726D01*
X5517351Y-16751726D01*
X5498303Y-16742202D01*
X5488780Y-16732678D01*
X5479256Y-16713631D01*
X5469732Y-16675536D01*
X5469732Y-16627917D01*
X5479256Y-16589821D01*
X5488780Y-16570774D01*
X5498303Y-16561250D01*
X5517351Y-16551726D01*
X5669732Y-16732678D02*
X5679256Y-16742202D01*
X5669732Y-16751726D01*
X5660208Y-16742202D01*
X5669732Y-16732678D01*
X5669732Y-16751726D01*
X5803065Y-16551726D02*
X5822113Y-16551726D01*
X5841161Y-16561250D01*
X5850684Y-16570774D01*
X5860208Y-16589821D01*
X5869732Y-16627917D01*
X5869732Y-16675536D01*
X5860208Y-16713631D01*
X5850684Y-16732678D01*
X5841161Y-16742202D01*
X5822113Y-16751726D01*
X5803065Y-16751726D01*
X5784018Y-16742202D01*
X5774494Y-16732678D01*
X5764970Y-16713631D01*
X5755446Y-16675536D01*
X5755446Y-16627917D01*
X5764970Y-16589821D01*
X5774494Y-16570774D01*
X5784018Y-16561250D01*
X5803065Y-16551726D01*
X5984018Y-16637440D02*
X5964970Y-16627917D01*
X5955446Y-16618393D01*
X5945922Y-16599345D01*
X5945922Y-16589821D01*
X5955446Y-16570774D01*
X5964970Y-16561250D01*
X5984018Y-16551726D01*
X6022113Y-16551726D01*
X6041161Y-16561250D01*
X6050684Y-16570774D01*
X6060208Y-16589821D01*
X6060208Y-16599345D01*
X6050684Y-16618393D01*
X6041161Y-16627917D01*
X6022113Y-16637440D01*
X5984018Y-16637440D01*
X5964970Y-16646964D01*
X5955446Y-16656488D01*
X5945922Y-16675536D01*
X5945922Y-16713631D01*
X5955446Y-16732678D01*
X5964970Y-16742202D01*
X5984018Y-16751726D01*
X6022113Y-16751726D01*
X6041161Y-16742202D01*
X6050684Y-16732678D01*
X6060208Y-16713631D01*
X6060208Y-16675536D01*
X6050684Y-16656488D01*
X6041161Y-16646964D01*
X6022113Y-16637440D01*
X6231637Y-16551726D02*
X6193541Y-16551726D01*
X6174494Y-16561250D01*
X6164970Y-16570774D01*
X6145922Y-16599345D01*
X6136399Y-16637440D01*
X6136399Y-16713631D01*
X6145922Y-16732678D01*
X6155446Y-16742202D01*
X6174494Y-16751726D01*
X6212589Y-16751726D01*
X6231637Y-16742202D01*
X6241161Y-16732678D01*
X6250684Y-16713631D01*
X6250684Y-16666012D01*
X6241161Y-16646964D01*
X6231637Y-16637440D01*
X6212589Y-16627917D01*
X6174494Y-16627917D01*
X6155446Y-16637440D01*
X6145922Y-16646964D01*
X6136399Y-16666012D01*
X6422113Y-16551726D02*
X6384018Y-16551726D01*
X6364970Y-16561250D01*
X6355446Y-16570774D01*
X6336399Y-16599345D01*
X6326875Y-16637440D01*
X6326875Y-16713631D01*
X6336399Y-16732678D01*
X6345922Y-16742202D01*
X6364970Y-16751726D01*
X6403065Y-16751726D01*
X6422113Y-16742202D01*
X6431637Y-16732678D01*
X6441161Y-16713631D01*
X6441161Y-16666012D01*
X6431637Y-16646964D01*
X6422113Y-16637440D01*
X6403065Y-16627917D01*
X6364970Y-16627917D01*
X6345922Y-16637440D01*
X6336399Y-16646964D01*
X6326875Y-16666012D01*
X6517351Y-16551726D02*
X6517351Y-16589821D01*
X6593541Y-16551726D02*
X6593541Y-16589821D01*
X6888780Y-16827917D02*
X6879256Y-16818393D01*
X6860208Y-16789821D01*
X6850684Y-16770774D01*
X6841161Y-16742202D01*
X6831637Y-16694583D01*
X6831637Y-16656488D01*
X6841161Y-16608869D01*
X6850684Y-16580298D01*
X6860208Y-16561250D01*
X6879256Y-16532678D01*
X6888780Y-16523155D01*
X7050684Y-16618393D02*
X7050684Y-16751726D01*
X7003065Y-16542202D02*
X6955446Y-16685059D01*
X7079256Y-16685059D01*
X7307827Y-16751726D02*
X7307827Y-16551726D01*
X7393541Y-16751726D02*
X7393541Y-16646964D01*
X7384018Y-16627917D01*
X7364970Y-16618393D01*
X7336399Y-16618393D01*
X7317351Y-16627917D01*
X7307827Y-16637440D01*
X7517351Y-16751726D02*
X7498303Y-16742202D01*
X7488780Y-16732678D01*
X7479256Y-16713631D01*
X7479256Y-16656488D01*
X7488780Y-16637440D01*
X7498303Y-16627917D01*
X7517351Y-16618393D01*
X7545922Y-16618393D01*
X7564970Y-16627917D01*
X7574494Y-16637440D01*
X7584018Y-16656488D01*
X7584018Y-16713631D01*
X7574494Y-16732678D01*
X7564970Y-16742202D01*
X7545922Y-16751726D01*
X7517351Y-16751726D01*
X7698303Y-16751726D02*
X7679256Y-16742202D01*
X7669732Y-16723155D01*
X7669732Y-16551726D01*
X7850684Y-16742202D02*
X7831637Y-16751726D01*
X7793541Y-16751726D01*
X7774494Y-16742202D01*
X7764970Y-16723155D01*
X7764970Y-16646964D01*
X7774494Y-16627917D01*
X7793541Y-16618393D01*
X7831637Y-16618393D01*
X7850684Y-16627917D01*
X7860208Y-16646964D01*
X7860208Y-16666012D01*
X7764970Y-16685059D01*
X7936399Y-16742202D02*
X7955446Y-16751726D01*
X7993541Y-16751726D01*
X8012589Y-16742202D01*
X8022113Y-16723155D01*
X8022113Y-16713631D01*
X8012589Y-16694583D01*
X7993541Y-16685059D01*
X7964970Y-16685059D01*
X7945922Y-16675536D01*
X7936399Y-16656488D01*
X7936399Y-16646964D01*
X7945922Y-16627917D01*
X7964970Y-16618393D01*
X7993541Y-16618393D01*
X8012589Y-16627917D01*
X8088780Y-16827917D02*
X8098303Y-16818393D01*
X8117351Y-16789821D01*
X8126875Y-16770774D01*
X8136399Y-16742202D01*
X8145922Y-16694583D01*
X8145922Y-16656488D01*
X8136399Y-16608869D01*
X8126875Y-16580298D01*
X8117351Y-16561250D01*
X8098303Y-16532678D01*
X8088780Y-16523155D01*
X3116875Y-16881250D02*
X3316875Y-17081250D01*
X3316875Y-16881250D02*
X3116875Y-17081250D01*
X3216875Y-16881250D02*
X3216875Y-17081250D01*
X3116875Y-16981250D02*
X3316875Y-16981250D01*
X3555446Y-16871726D02*
X3679256Y-16871726D01*
X3612589Y-16947917D01*
X3641161Y-16947917D01*
X3660208Y-16957440D01*
X3669732Y-16966964D01*
X3679256Y-16986012D01*
X3679256Y-17033631D01*
X3669732Y-17052679D01*
X3660208Y-17062202D01*
X3641161Y-17071726D01*
X3584018Y-17071726D01*
X3564970Y-17062202D01*
X3555446Y-17052679D01*
X3764970Y-17052679D02*
X3774494Y-17062202D01*
X3764970Y-17071726D01*
X3755446Y-17062202D01*
X3764970Y-17052679D01*
X3764970Y-17071726D01*
X3898303Y-16871726D02*
X3917351Y-16871726D01*
X3936399Y-16881250D01*
X3945922Y-16890774D01*
X3955446Y-16909821D01*
X3964970Y-16947917D01*
X3964970Y-16995536D01*
X3955446Y-17033631D01*
X3945922Y-17052679D01*
X3936399Y-17062202D01*
X3917351Y-17071726D01*
X3898303Y-17071726D01*
X3879256Y-17062202D01*
X3869732Y-17052679D01*
X3860208Y-17033631D01*
X3850684Y-16995536D01*
X3850684Y-16947917D01*
X3860208Y-16909821D01*
X3869732Y-16890774D01*
X3879256Y-16881250D01*
X3898303Y-16871726D01*
X4088780Y-16871726D02*
X4107827Y-16871726D01*
X4126875Y-16881250D01*
X4136399Y-16890774D01*
X4145922Y-16909821D01*
X4155446Y-16947917D01*
X4155446Y-16995536D01*
X4145922Y-17033631D01*
X4136399Y-17052679D01*
X4126875Y-17062202D01*
X4107827Y-17071726D01*
X4088780Y-17071726D01*
X4069732Y-17062202D01*
X4060208Y-17052679D01*
X4050684Y-17033631D01*
X4041161Y-16995536D01*
X4041161Y-16947917D01*
X4050684Y-16909821D01*
X4060208Y-16890774D01*
X4069732Y-16881250D01*
X4088780Y-16871726D01*
X4279256Y-16871726D02*
X4298303Y-16871726D01*
X4317351Y-16881250D01*
X4326875Y-16890774D01*
X4336399Y-16909821D01*
X4345923Y-16947917D01*
X4345923Y-16995536D01*
X4336399Y-17033631D01*
X4326875Y-17052679D01*
X4317351Y-17062202D01*
X4298303Y-17071726D01*
X4279256Y-17071726D01*
X4260208Y-17062202D01*
X4250684Y-17052679D01*
X4241161Y-17033631D01*
X4231637Y-16995536D01*
X4231637Y-16947917D01*
X4241161Y-16909821D01*
X4250684Y-16890774D01*
X4260208Y-16881250D01*
X4279256Y-16871726D01*
X4431637Y-17071726D02*
X4431637Y-16938393D01*
X4431637Y-16957440D02*
X4441161Y-16947917D01*
X4460208Y-16938393D01*
X4488780Y-16938393D01*
X4507827Y-16947917D01*
X4517351Y-16966964D01*
X4517351Y-17071726D01*
X4517351Y-16966964D02*
X4526875Y-16947917D01*
X4545923Y-16938393D01*
X4574494Y-16938393D01*
X4593542Y-16947917D01*
X4603065Y-16966964D01*
X4603065Y-17071726D01*
X4698303Y-17071726D02*
X4698303Y-16938393D01*
X4698303Y-16957440D02*
X4707827Y-16947917D01*
X4726875Y-16938393D01*
X4755446Y-16938393D01*
X4774494Y-16947917D01*
X4784018Y-16966964D01*
X4784018Y-17071726D01*
X4784018Y-16966964D02*
X4793542Y-16947917D01*
X4812589Y-16938393D01*
X4841161Y-16938393D01*
X4860208Y-16947917D01*
X4869732Y-16966964D01*
X4869732Y-17071726D01*
X5260208Y-16862202D02*
X5088780Y-17119345D01*
X5517351Y-16871726D02*
X5536399Y-16871726D01*
X5555446Y-16881250D01*
X5564970Y-16890774D01*
X5574494Y-16909821D01*
X5584018Y-16947917D01*
X5584018Y-16995536D01*
X5574494Y-17033631D01*
X5564970Y-17052679D01*
X5555446Y-17062202D01*
X5536399Y-17071726D01*
X5517351Y-17071726D01*
X5498303Y-17062202D01*
X5488780Y-17052679D01*
X5479256Y-17033631D01*
X5469732Y-16995536D01*
X5469732Y-16947917D01*
X5479256Y-16909821D01*
X5488780Y-16890774D01*
X5498303Y-16881250D01*
X5517351Y-16871726D01*
X5669732Y-17052679D02*
X5679256Y-17062202D01*
X5669732Y-17071726D01*
X5660208Y-17062202D01*
X5669732Y-17052679D01*
X5669732Y-17071726D01*
X5869732Y-17071726D02*
X5755446Y-17071726D01*
X5812589Y-17071726D02*
X5812589Y-16871726D01*
X5793541Y-16900298D01*
X5774494Y-16919345D01*
X5755446Y-16928869D01*
X6060208Y-17071726D02*
X5945922Y-17071726D01*
X6003065Y-17071726D02*
X6003065Y-16871726D01*
X5984018Y-16900298D01*
X5964970Y-16919345D01*
X5945922Y-16928869D01*
X6174494Y-16957440D02*
X6155446Y-16947917D01*
X6145922Y-16938393D01*
X6136399Y-16919345D01*
X6136399Y-16909821D01*
X6145922Y-16890774D01*
X6155446Y-16881250D01*
X6174494Y-16871726D01*
X6212589Y-16871726D01*
X6231637Y-16881250D01*
X6241161Y-16890774D01*
X6250684Y-16909821D01*
X6250684Y-16919345D01*
X6241161Y-16938393D01*
X6231637Y-16947917D01*
X6212589Y-16957440D01*
X6174494Y-16957440D01*
X6155446Y-16966964D01*
X6145922Y-16976488D01*
X6136399Y-16995536D01*
X6136399Y-17033631D01*
X6145922Y-17052679D01*
X6155446Y-17062202D01*
X6174494Y-17071726D01*
X6212589Y-17071726D01*
X6231637Y-17062202D01*
X6241161Y-17052679D01*
X6250684Y-17033631D01*
X6250684Y-16995536D01*
X6241161Y-16976488D01*
X6231637Y-16966964D01*
X6212589Y-16957440D01*
X6441161Y-17071726D02*
X6326875Y-17071726D01*
X6384018Y-17071726D02*
X6384018Y-16871726D01*
X6364970Y-16900298D01*
X6345922Y-16919345D01*
X6326875Y-16928869D01*
X6517351Y-16871726D02*
X6517351Y-16909821D01*
X6593541Y-16871726D02*
X6593541Y-16909821D01*
X6888780Y-17147917D02*
X6879256Y-17138393D01*
X6860208Y-17109821D01*
X6850684Y-17090774D01*
X6841161Y-17062202D01*
X6831637Y-17014583D01*
X6831637Y-16976488D01*
X6841161Y-16928869D01*
X6850684Y-16900298D01*
X6860208Y-16881250D01*
X6879256Y-16852679D01*
X6888780Y-16843155D01*
X7050684Y-16938393D02*
X7050684Y-17071726D01*
X7003065Y-16862202D02*
X6955446Y-17005060D01*
X7079256Y-17005060D01*
X7241161Y-16871726D02*
X7203065Y-16871726D01*
X7184018Y-16881250D01*
X7174494Y-16890774D01*
X7155446Y-16919345D01*
X7145922Y-16957440D01*
X7145922Y-17033631D01*
X7155446Y-17052679D01*
X7164970Y-17062202D01*
X7184018Y-17071726D01*
X7222113Y-17071726D01*
X7241161Y-17062202D01*
X7250684Y-17052679D01*
X7260208Y-17033631D01*
X7260208Y-16986012D01*
X7250684Y-16966964D01*
X7241161Y-16957440D01*
X7222113Y-16947917D01*
X7184018Y-16947917D01*
X7164970Y-16957440D01*
X7155446Y-16966964D01*
X7145922Y-16986012D01*
X7498303Y-17071726D02*
X7498303Y-16871726D01*
X7584018Y-17071726D02*
X7584018Y-16966964D01*
X7574494Y-16947917D01*
X7555446Y-16938393D01*
X7526875Y-16938393D01*
X7507827Y-16947917D01*
X7498303Y-16957440D01*
X7707827Y-17071726D02*
X7688780Y-17062202D01*
X7679256Y-17052679D01*
X7669732Y-17033631D01*
X7669732Y-16976488D01*
X7679256Y-16957440D01*
X7688780Y-16947917D01*
X7707827Y-16938393D01*
X7736399Y-16938393D01*
X7755446Y-16947917D01*
X7764970Y-16957440D01*
X7774494Y-16976488D01*
X7774494Y-17033631D01*
X7764970Y-17052679D01*
X7755446Y-17062202D01*
X7736399Y-17071726D01*
X7707827Y-17071726D01*
X7888780Y-17071726D02*
X7869732Y-17062202D01*
X7860208Y-17043155D01*
X7860208Y-16871726D01*
X8041161Y-17062202D02*
X8022113Y-17071726D01*
X7984018Y-17071726D01*
X7964970Y-17062202D01*
X7955446Y-17043155D01*
X7955446Y-16966964D01*
X7964970Y-16947917D01*
X7984018Y-16938393D01*
X8022113Y-16938393D01*
X8041161Y-16947917D01*
X8050684Y-16966964D01*
X8050684Y-16986012D01*
X7955446Y-17005060D01*
X8126875Y-17062202D02*
X8145922Y-17071726D01*
X8184018Y-17071726D01*
X8203065Y-17062202D01*
X8212589Y-17043155D01*
X8212589Y-17033631D01*
X8203065Y-17014583D01*
X8184018Y-17005060D01*
X8155446Y-17005060D01*
X8136399Y-16995536D01*
X8126875Y-16976488D01*
X8126875Y-16966964D01*
X8136399Y-16947917D01*
X8155446Y-16938393D01*
X8184018Y-16938393D01*
X8203065Y-16947917D01*
X8279256Y-17147917D02*
X8288780Y-17138393D01*
X8307827Y-17109821D01*
X8317351Y-17090774D01*
X8326875Y-17062202D01*
X8336399Y-17014583D01*
X8336399Y-16976488D01*
X8326875Y-16928869D01*
X8317351Y-16900298D01*
X8307827Y-16881250D01*
X8288780Y-16852679D01*
X8279256Y-16843155D01*
M02*
