M48
; DRILL file {KiCad (6.0.6)} date Tue Aug 23 00:03:31 2022
; FORMAT={-:-/ absolute / metric / decimal}
; #@! TF.CreationDate,2022-08-23T00:03:31+10:00
; #@! TF.GenerationSoftware,Kicad,Pcbnew,(6.0.6)
; #@! TF.FileFunction,Plated,1,2,PTH
FMAT,2
METRIC
; #@! TA.AperFunction,Plated,PTH,ViaDrill
T1C0.300
; #@! TA.AperFunction,Plated,PTH,ComponentDrill
T2C0.350
; #@! TA.AperFunction,Plated,PTH,ViaDrill
T3C0.400
; #@! TA.AperFunction,Plated,PTH,ComponentDrill
T4C0.500
; #@! TA.AperFunction,Plated,PTH,ComponentDrill
T5C0.600
; #@! TA.AperFunction,Plated,PTH,ComponentDrill
T6C1.000
; #@! TA.AperFunction,Plated,PTH,ComponentDrill
T7C2.200
; #@! TA.AperFunction,Plated,PTH,ComponentDrill
T8C3.000
%
G90
G05
T1
X34.639Y-113.032
X34.94Y-99.66
X36.84Y-124.53
X37.02Y-90.18
X37.43Y-83.91
X37.61Y-70.65
X38.81Y-85.53
X39.679Y-101.882
X39.9Y-87.74
X40.46Y-91.82
X41.36Y-77.28
X41.57Y-96.15
X41.71Y-74.06
X41.92Y-55.93
X43.119Y-142.452
X44.88Y-85.77
X45.16Y-71.01
X45.779Y-88.402
X45.88Y-85.77
X46.17Y-102.87
X46.44Y-96.92
X46.47Y-90.66
X46.519Y-88.082
X46.93Y-72.752
X47.09Y-105.21
X48.15Y-85.46
X48.22Y-92.32
X48.23Y-101.81
X48.759Y-79.272
X49.359Y-79.802
X49.734Y-86.918
X49.99Y-94.84
X50.069Y-83.432
X50.55Y-119.37
X51.21Y-101.81
X51.8Y-97.7
X51.829Y-84.282
X52.155Y-58.675
X52.8Y-105.43
X53.6Y-60.69
X53.814Y-87.188
X53.96Y-102.08
X54.349Y-137.822
X54.52Y-82.65
X54.669Y-99.332
X54.95Y-125.04
X55.039Y-94.412
X55.06Y-92.24
X55.53Y-82.65
X55.67Y-102.87
X55.82Y-104.36
X56.059Y-95.722
X56.36Y-101.71
X56.42Y-74.18
X56.819Y-88.49
X57.159Y-89.26
X57.95Y-85.7
X57.95Y-86.72
X58.47Y-80.8
X58.489Y-93.972
X58.68Y-95.25
X58.86Y-70.89
X59.099Y-96.112
X59.16Y-94.6
X59.48Y-89.48
X59.759Y-106.602
X60.94Y-74.08
X61.029Y-89.492
X62.02Y-93.47
X62.819Y-88.532
X63.03Y-55.98
X63.232Y-90.18
X64.822Y-87.57
X64.862Y-88.53
X65.05Y-89.64
X65.249Y-125.662
X65.41Y-83.09
X65.5Y-84.76
X65.59Y-86.76
X65.8Y-55.089
X66.37Y-116.67
X66.76Y-58.67
X66.938Y-121.922
X67.297Y-140.972
X67.48Y-58.03
X67.69Y-72.75
X67.72Y-59.65
X68.2Y-77.87
X68.33Y-66.36
X68.35Y-91.26
X68.83Y-71.39
X68.89Y-93.49
X69.089Y-143.862
X69.14Y-83.27
X69.31Y-54.479
X69.33Y-73.0
X69.36Y-85.83
X69.4Y-58.16
X69.43Y-62.68
X69.73Y-59.7
X69.82Y-68.2
X70.22Y-74.8
X70.73Y-91.35
X70.819Y-109.652
X70.91Y-84.7
X71.28Y-71.51
X71.73Y-58.19
X72.24Y-100.95
X72.32Y-76.67
X72.51Y-59.66
X72.7Y-119.6
X72.86Y-58.67
X72.9Y-83.58
X73.05Y-71.52
X73.06Y-68.76
X73.06Y-73.34
X73.1Y-65.19
X73.749Y-72.682
X75.03Y-75.24
X75.35Y-86.41
X75.64Y-93.37
X77.64Y-82.0
X77.729Y-103.552
X77.73Y-91.89
X78.07Y-55.98
X78.97Y-76.57
X81.05Y-65.49
X84.629Y-143.942
X86.12Y-126.64
X87.16Y-69.13
X87.28Y-79.07
X88.029Y-104.402
X90.419Y-62.642
X92.68Y-109.83
X93.619Y-54.422
X93.679Y-90.733
X96.97Y-74.77
X98.829Y-110.362
X100.6Y-70.31
X102.02Y-119.06
X102.93Y-138.59
X106.0Y-82.98
X106.01Y-120.65
T2
X50.324Y-87.615
X50.324Y-88.89
X50.324Y-90.165
X51.599Y-87.615
X51.599Y-88.89
X51.599Y-90.165
X52.874Y-87.615
X52.874Y-88.89
X52.874Y-90.165
T3
X39.99Y-89.74
X41.94Y-87.08
X59.13Y-86.72
X62.99Y-86.73
X69.95Y-78.23
X71.28Y-73.19
T4
X50.979Y-79.042
X50.979Y-80.042
X50.979Y-81.042
X50.979Y-82.042
X50.979Y-83.042
T6
X35.421Y-83.172
X35.421Y-85.712
X35.421Y-88.252
X35.421Y-90.792
X35.421Y-93.332
X78.779Y-84.297
X81.319Y-84.297
T7
X51.594Y-71.438
X51.594Y-128.588
X89.694Y-71.438
X89.694Y-128.588
T8
X38.259Y-78.422
X38.259Y-97.472
X38.259Y-116.522
X38.259Y-135.572
X39.529Y-66.992
X44.609Y-75.882
X44.609Y-94.932
X44.609Y-113.983
X44.609Y-133.032
X45.879Y-64.453
X49.054Y-143.192
X55.404Y-140.653
X57.309Y-78.422
X57.309Y-97.472
X57.309Y-116.522
X57.309Y-135.572
X58.579Y-66.992
X63.659Y-75.882
X63.659Y-94.932
X63.659Y-113.983
X63.659Y-133.032
X64.929Y-64.453
X76.359Y-78.422
X76.359Y-97.472
X76.359Y-116.522
X76.359Y-135.572
X77.629Y-66.992
X82.709Y-75.882
X82.709Y-94.932
X82.709Y-113.983
X82.709Y-133.032
X83.979Y-64.453
X94.139Y-78.422
X94.139Y-97.472
X94.139Y-116.522
X94.139Y-135.572
X96.679Y-66.992
X96.679Y-84.772
X96.679Y-103.822
X96.679Y-122.872
X96.679Y-141.922
X101.759Y-86.677
X101.759Y-124.777
X103.029Y-64.453
X104.299Y-93.027
X104.299Y-131.127
T5
X66.324Y-47.862G85X66.324Y-48.462
G05
X66.324Y-51.792G85X66.324Y-52.892
G05
X74.964Y-47.862G85X74.964Y-48.462
G05
X74.964Y-51.792G85X74.964Y-52.892
G05
T0
M30
