M48
; DRILL file {KiCad (6.0.6)} date Tue Aug 23 00:03:31 2022
; FORMAT={-:-/ absolute / metric / decimal}
; #@! TF.CreationDate,2022-08-23T00:03:31+10:00
; #@! TF.GenerationSoftware,Kicad,Pcbnew,(6.0.6)
; #@! TF.FileFunction,NonPlated,1,2,NPTH
FMAT,2
METRIC
; #@! TA.AperFunction,NonPlated,NPTH,ComponentDrill
T1C0.650
; #@! TA.AperFunction,NonPlated,NPTH,ComponentDrill
T2C1.750
; #@! TA.AperFunction,NonPlated,NPTH,ComponentDrill
T3C3.048
; #@! TA.AperFunction,NonPlated,NPTH,ComponentDrill
T4C3.988
%
G90
G05
T1
X67.754Y-51.812
X73.534Y-51.812
T2
X36.989Y-61.912
X36.989Y-80.962
X36.989Y-100.012
X36.989Y-119.062
X36.989Y-138.112
X46.514Y-138.112
X47.149Y-61.912
X47.149Y-80.962
X47.149Y-100.012
X47.149Y-119.062
X47.149Y-138.112
X56.039Y-61.912
X56.039Y-80.962
X56.039Y-100.012
X56.039Y-119.062
X56.039Y-138.112
X56.674Y-138.112
X66.199Y-61.912
X66.199Y-80.962
X66.199Y-100.012
X66.199Y-119.062
X66.199Y-138.112
X75.089Y-61.912
X75.089Y-80.962
X75.089Y-100.012
X75.089Y-119.062
X75.089Y-138.112
X85.249Y-61.912
X85.249Y-80.962
X85.249Y-100.012
X85.249Y-119.062
X85.249Y-138.112
X94.139Y-61.912
X99.219Y-75.882
X99.219Y-85.407
X99.219Y-86.042
X99.219Y-94.932
X99.219Y-95.567
X99.219Y-105.093
X99.219Y-113.983
X99.219Y-123.507
X99.219Y-124.142
X99.219Y-133.032
X99.219Y-133.667
X99.219Y-143.192
X104.299Y-61.912
T3
X39.688Y-145.097
X63.5Y-145.097
X106.204Y-78.581
X106.204Y-102.394
X106.204Y-116.681
X106.204Y-140.494
T4
X39.688Y-129.857
X42.069Y-61.912
X42.069Y-80.962
X42.069Y-100.012
X42.069Y-119.062
X42.069Y-138.112
X51.594Y-138.112
X61.119Y-61.912
X61.119Y-80.962
X61.119Y-100.012
X61.119Y-119.062
X61.119Y-138.112
X63.5Y-129.857
X80.169Y-61.912
X80.169Y-80.962
X80.169Y-100.012
X80.169Y-119.062
X80.169Y-138.112
X90.964Y-78.581
X90.964Y-102.394
X90.964Y-116.681
X90.964Y-140.494
X99.219Y-61.912
X99.219Y-80.962
X99.219Y-90.487
X99.219Y-100.012
X99.219Y-119.062
X99.219Y-128.588
X99.219Y-138.112
T0
M30
